<svg xmlns="http://www.w3.org/2000/svg" xmlns:xlink="http://www.w3.org/1999/xlink" preserveAspectRatio="xMidYMid" width="15.031" height="17" viewBox="0 0 15.031 17">
  <defs>
    <style>
      .cls-1 {
        fill: #000;
        fill-rule: evenodd;
      }
    </style>
  </defs>
  <path d="M14.841,8.724 C14.717,8.860 14.556,8.928 14.394,8.928 C14.232,8.928 14.070,8.860 13.947,8.724 L8.149,2.345 L8.149,16.309 C8.149,16.693 7.866,17.004 7.517,17.004 C7.168,17.004 6.885,16.693 6.885,16.309 L6.885,2.345 L1.087,8.724 C0.840,8.996 0.440,8.996 0.193,8.724 C-0.053,8.453 -0.053,8.013 0.193,7.742 L7.070,0.176 C7.307,-0.085 7.727,-0.085 7.964,0.176 L14.841,7.742 C15.088,8.013 15.088,8.453 14.841,8.724 Z" class="cls-1"/>
</svg>
