<svg xmlns="http://www.w3.org/2000/svg" xmlns:xlink="http://www.w3.org/1999/xlink" preserveAspectRatio="xMidYMid" width="26" height="27" viewBox="0 0 26 27">
  <defs>
    <style>
      .cls-1 {
        fill: #20aa97;
        fill-rule: evenodd;
      }
    </style>
  </defs>
  <path d="M25.659,14.687 L13.755,26.685 C13.345,27.098 12.618,27.098 12.208,26.685 L0.303,14.687 C-0.124,14.256 -0.124,13.559 0.303,13.128 C0.517,12.912 0.797,12.805 1.077,12.805 C1.357,12.805 1.637,12.912 1.850,13.128 L11.887,23.244 L11.887,1.100 C11.887,0.490 12.377,-0.003 12.981,-0.003 C13.586,-0.003 14.075,0.490 14.075,1.100 L14.075,23.244 L24.112,13.128 C24.540,12.697 25.232,12.697 25.659,13.128 C26.087,13.559 26.087,14.256 25.659,14.687 Z" class="cls-1"/>
</svg>
