<svg xmlns="http://www.w3.org/2000/svg" viewBox="0 0 4.9 11.5"><defs><style>.cls-1{fill:#fff;}</style></defs><title>fb-link</title><g id="Слой_2" data-name="Слой 2"><g id="Слой_1-2" data-name="Слой 1"><path class="cls-1" d="M.16,6.12H1.22v5.19a.17.17,0,0,0,.16.19h1.8a.17.17,0,0,0,.16-.19V6.15H4.56A.17.17,0,0,0,4.71,6L4.9,4.07a.21.21,0,0,0,0-.14.15.15,0,0,0-.12-.06H3.33V2.67c0-.36.16-.54.49-.54h.92a.17.17,0,0,0,.16-.19V.19A.17.17,0,0,0,4.74,0H3.42A2.19,2.19,0,0,0,1.27,2.47v1.4H.16A.17.17,0,0,0,0,4.05V5.94A.17.17,0,0,0,.16,6.12Z"/></g></g></svg>