<svg xmlns="http://www.w3.org/2000/svg" viewBox="0 0 4.91 11.5"><title>fb-share</title><g id="Слой_2" data-name="Слой 2"><g id="Слой_1-2" data-name="Слой 1"><g id="Слой_2-2" data-name="Слой 2"><g id="Слой_1-2-2" style="fill: #00AC97;" data-name="Слой 1-2"><path d="M.16,6.12H1.22v5.19a.17.17,0,0,0,.15.19H3.18a.17.17,0,0,0,.16-.18h0V6.15H4.56A.17.17,0,0,0,4.71,6L4.9,4.07a.21.21,0,0,0,0-.14.15.15,0,0,0-.12-.06H3.33V2.67c0-.36.16-.54.49-.54h.92A.17.17,0,0,0,4.9,2h0V.19A.17.17,0,0,0,4.75,0H3.42A2.19,2.19,0,0,0,1.27,2.47v1.4H.16A.17.17,0,0,0,0,4H0V5.94a.17.17,0,0,0,.16.18Z"/></g></g></g></g></svg>