<svg xmlns="http://www.w3.org/2000/svg" viewBox="0 0 430.12 411"><title>ln-share</title><g id="Слой_2" data-name="Слой 2"><g id="Capa_1" data-name="Capa 1"><path id="LinkedIn" d="M430.12,252V411H337.93V262.63c0-37.27-13.33-62.71-46.7-62.71-25.47,0-40.63,17.14-47.3,33.72-2.43,5.93-3.06,14.18-3.06,22.48V411H148.65s1.24-251.29,0-277.32h92.21V173c-.19.29-.43.61-.61.9h.61V173c12.25-18.87,34.13-45.82,83.1-45.82C384.63,127.17,430.12,166.8,430.12,252ZM52.18,0C20.64,0,0,20.69,0,47.91,0,74.52,20,95.85,51,95.85h.62c32.16,0,52.16-21.32,52.16-47.94C103.13,20.69,83.73,0,52.18,0ZM5.48,411H97.66V133.68H5.48Z"/></g></g></svg>