<svg xmlns="http://www.w3.org/2000/svg" xmlns:xlink="http://www.w3.org/1999/xlink" preserveAspectRatio="xMidYMid" width="18" height="24" viewBox="0 0 18 24">
  <defs>
    <style>
      .cls-1 {
        fill: #20aa97;
        fill-rule: evenodd;
      }
    </style>
  </defs>
  <path d="M8.993,23.999 C8.849,23.999 8.705,23.959 8.577,23.877 C8.226,23.656 -0.007,18.355 -0.007,9.412 C-0.007,4.222 4.030,-0.001 8.993,-0.001 C13.954,-0.001 17.992,4.221 17.992,9.411 C17.992,18.355 9.759,23.656 9.408,23.877 C9.280,23.959 9.136,23.999 8.993,23.999 ZM8.993,1.681 C4.917,1.681 1.602,5.149 1.602,9.412 C1.602,16.311 7.375,20.977 8.993,22.149 C10.610,20.977 16.384,16.311 16.384,9.411 C16.383,5.149 13.067,1.681 8.993,1.681 ZM8.992,13.682 C6.741,13.682 4.909,11.767 4.909,9.412 C4.909,7.058 6.741,5.142 8.992,5.142 C11.243,5.142 13.074,7.058 13.074,9.412 C13.074,11.767 11.243,13.682 8.992,13.682 ZM8.992,6.824 C7.628,6.824 6.518,7.985 6.518,9.412 C6.518,10.838 7.628,11.999 8.992,11.999 C10.356,11.999 11.465,10.838 11.465,9.412 C11.465,7.985 10.356,6.824 8.992,6.824 Z" class="cls-1"/>
</svg>
