<svg xmlns="http://www.w3.org/2000/svg" xmlns:xlink="http://www.w3.org/1999/xlink" preserveAspectRatio="xMidYMid" width="21" height="16" viewBox="0 0 21 16">
  <defs>
    <style>
      .cls-1 {
        fill: #20aa97;
        fill-rule: evenodd;
      }
    </style>
  </defs>
  <path d="M17.947,15.997 L3.041,15.997 C1.361,15.997 -0.006,14.617 -0.006,12.921 L-0.006,3.088 C-0.006,1.391 1.361,0.011 3.041,0.011 L17.978,0.011 C18.790,0.011 19.581,0.348 20.148,0.936 C20.713,1.522 21.013,2.293 20.992,3.109 L20.993,12.921 C20.993,14.617 19.626,15.997 17.947,15.997 ZM3.041,14.357 L17.947,14.357 C18.744,14.357 19.369,13.726 19.369,12.921 L19.369,3.547 L10.895,8.414 C10.771,8.486 10.633,8.521 10.494,8.521 C10.356,8.521 10.217,8.486 10.093,8.414 L1.618,3.547 L1.618,12.921 C1.618,13.726 2.243,14.357 3.041,14.357 ZM3.041,1.651 C2.702,1.651 2.408,1.782 2.167,1.975 L10.494,6.758 L18.828,1.972 C18.582,1.779 18.290,1.651 17.978,1.651 L3.041,1.651 Z" class="cls-1"/>
</svg>
