<svg xmlns="http://www.w3.org/2000/svg" xmlns:xlink="http://www.w3.org/1999/xlink" viewBox="0 0 50.92 47.66"><defs><style>.cls-1{fill:none;}.cls-2{fill:#231f20;}.cls-3{clip-path:url(#clip-path);}.cls-4{fill:#fff;}</style><clipPath id="clip-path"><circle class="cls-1" cx="23.83" cy="23.83" r="23.83"/></clipPath></defs><title>our-client-hv</title><g id="Слой_2" data-name="Слой 2"><g id="Слой_1-2" data-name="Слой 1"><g id="Layer_2" data-name="Layer 2"><g id="Group_14_copy_2" data-name="Group 14 copy 2"><path class="cls-2" d="M23.21,35.84a2.21,2.21,0,0,1-1.52-.61L8.92,22.88a2,2,0,0,1-.12-2.83L8.85,20l.07-.07a2.21,2.21,0,0,1,3,0L23.21,30.82l24-23.23a2.21,2.21,0,0,1,3,0,2,2,0,0,1,.11,2.83l0,0-.07.07L24.73,35.23A2.16,2.16,0,0,1,23.21,35.84Z"/><circle class="cls-2" cx="23.83" cy="23.83" r="23.83"/><g class="cls-3"><path class="cls-4" d="M23.28,35.78a2.21,2.21,0,0,1-1.52-.61L9,22.82A2,2,0,0,1,8.89,20l0,0L9,19.88a2.21,2.21,0,0,1,3,0L23.28,30.76l24-23.23a2.21,2.21,0,0,1,3,0,2,2,0,0,1,.11,2.83l0,0-.07.07L24.8,35.17A2.16,2.16,0,0,1,23.28,35.78Z"/></g></g></g></g></g></svg>