<svg xmlns="http://www.w3.org/2000/svg" xmlns:xlink="http://www.w3.org/1999/xlink" preserveAspectRatio="xMidYMid" width="21" height="20" viewBox="0 0 21 20">
  <defs>
    <style>
      .cls-1 {
        fill: #20aa97;
        fill-rule: evenodd;
      }
    </style>
  </defs>
  <path d="M15.845,20.004 C13.389,20.004 10.350,18.659 6.754,15.971 C3.310,13.396 -0.641,9.318 0.092,4.511 C0.316,3.098 1.310,0.756 3.134,0.080 C3.387,-0.044 3.726,-0.014 3.913,0.019 C4.590,0.122 5.216,0.584 5.632,0.891 L5.710,0.949 C6.298,1.345 6.827,1.829 7.338,2.296 L7.557,2.495 C7.919,2.840 8.247,3.153 8.531,3.575 C9.429,4.932 8.763,5.901 8.174,6.757 C7.972,7.046 7.490,7.572 7.173,7.909 C7.412,8.314 7.889,9.014 8.077,9.265 C8.513,9.852 9.022,10.412 9.592,10.930 C10.117,11.409 10.750,11.880 11.472,12.330 C11.715,12.495 12.511,12.978 12.966,13.211 L13.474,12.727 C13.566,12.639 13.658,12.538 13.752,12.434 C14.163,11.986 14.725,11.373 15.596,11.342 C16.444,11.336 17.318,11.962 18.309,12.743 C18.488,12.885 18.647,13.011 18.776,13.102 C19.681,13.763 20.907,14.659 21.011,16.047 C21.041,16.762 20.667,17.508 19.900,18.284 C18.803,19.431 17.448,20.004 15.845,20.004 ZM3.628,1.322 C2.518,1.790 1.680,3.386 1.471,4.706 C0.835,8.879 4.461,12.566 7.615,14.925 C12.880,18.861 16.669,19.687 18.878,17.380 C19.541,16.708 19.626,16.304 19.618,16.121 C19.560,15.351 18.661,14.693 17.937,14.164 C17.802,14.069 17.622,13.927 17.420,13.768 C17.003,13.439 16.031,12.671 15.653,12.671 C15.650,12.671 15.648,12.671 15.645,12.671 C15.379,12.681 15.086,13.000 14.802,13.310 C14.686,13.436 14.573,13.560 14.460,13.667 L13.646,14.443 C13.373,14.704 13.033,15.028 10.686,13.427 C9.916,12.948 9.216,12.427 8.629,11.893 C7.994,11.315 7.427,10.690 6.941,10.036 C5.351,7.915 5.581,7.640 5.826,7.348 C6.211,6.947 6.836,6.274 7.011,6.023 C7.588,5.185 7.752,4.890 7.354,4.289 C7.155,3.992 6.891,3.741 6.585,3.449 L6.374,3.256 C5.899,2.822 5.408,2.373 4.882,2.019 L4.778,1.942 C4.511,1.745 4.013,1.378 3.690,1.332 C3.678,1.330 3.667,1.328 3.656,1.326 C3.646,1.324 3.636,1.323 3.628,1.322 ZM3.700,1.294 C3.682,1.301 3.665,1.307 3.647,1.315 C3.661,1.311 3.679,1.304 3.700,1.294 Z" class="cls-1"/>
</svg>
