<svg xmlns="http://www.w3.org/2000/svg" viewBox="0 0 579.15 579.12"><defs><style>.cls-1{fill:#00ac97;}</style></defs><title>pt-share-hv</title><g id="Слой_2" data-name="Слой 2"><g id="Capa_1" data-name="Capa 1"><path class="cls-1" d="M434.92,38.84Q368.38,0,289.57,0T144.22,38.84A288.33,288.33,0,0,0,38.84,144.22Q0,210.77,0,289.57q0,87.85,47.88,159.49T173.44,555q-1.51-40.34,4.9-66.73l37.33-157.61q-9.43-18.47-9.43-46,0-32,16.21-53.54T262,209.63q18.85,0,29,12.45t10.18,31.29q0,11.7-4.33,28.47t-11.31,38.84q-7,22.05-10,35.25-5.29,23,8.67,39.4t37,16.4q40.35,0,66.18-44.86t25.83-109q0-49.39-31.86-80.31T292.6,146.66q-63.73,0-103.12,40.91t-39.4,97.84q0,33.94,19.23,56.94,6.41,7.54,4.15,16.2-.76,2.27-3,11.31c-1.51,6-2.51,9.93-3,11.69q-3,12.07-14.33,7.54Q124,377,109,347.24t-15.08-69a164.56,164.56,0,0,1,8.1-50.53,172.3,172.3,0,0,1,25.26-48.83,198.54,198.54,0,0,1,41.1-41.66q23.94-18.1,58.26-29t73.9-10.93q53.54,0,96.15,23.75t65,61.46a155.19,155.19,0,0,1,22.44,80.69q0,56.56-19.61,101.81T409.11,436q-35.83,25.82-81.45,25.83a89.33,89.33,0,0,1-43-10.75q-20-10.75-27.53-25.45-17,66.73-20.36,79.55-7.17,26.78-29.41,61.84a285.42,285.42,0,0,0,82.2,12.06q78.8,0,145.35-38.83A288.36,288.36,0,0,0,540.31,434.9q38.83-66.55,38.84-145.35T540.31,144.19A288.48,288.48,0,0,0,434.92,38.84Z"/></g></g></svg>