<svg xmlns="http://www.w3.org/2000/svg" xmlns:xlink="http://www.w3.org/1999/xlink" preserveAspectRatio="xMidYMid" width="17" height="17" viewBox="0 0 17 17">
  <defs>
    <style>
      .cls-1 {
        fill: #000;
        fill-rule: evenodd;
      }
    </style>
  </defs>
  <path d="M8.500,-0.001 C3.806,-0.001 -0.000,3.805 -0.000,8.499 C-0.000,13.194 3.806,16.999 8.500,16.999 C13.194,16.999 17.000,13.194 17.000,8.499 C17.000,3.805 13.194,-0.001 8.500,-0.001 ZM13.414,9.232 L9.412,13.234 C9.210,13.436 8.944,13.537 8.679,13.537 C8.414,13.537 8.149,13.436 7.946,13.234 C7.541,12.829 7.541,12.173 7.946,11.768 L10.178,9.536 L4.319,9.536 C3.746,9.536 3.282,9.072 3.282,8.499 C3.282,7.927 3.746,7.463 4.319,7.463 L10.178,7.463 L7.946,5.231 C7.541,4.826 7.541,4.170 7.946,3.765 C8.351,3.360 9.008,3.360 9.412,3.765 L13.414,7.767 C13.608,7.961 13.718,8.224 13.718,8.499 C13.718,8.774 13.608,9.038 13.414,9.232 Z" class="cls-1"/>
</svg>
