<svg xmlns="http://www.w3.org/2000/svg" xmlns:xlink="http://www.w3.org/1999/xlink" preserveAspectRatio="xMidYMid" width="10.718" height="8.875" viewBox="0 0 10.718 8.875">
  <defs>
    <style>
      .cls-1 {
        fill: #fff;
        fill-rule: evenodd;
      }
    </style>
  </defs>
  <path d="M10.467,1.033 C10.299,1.108 10.125,1.172 9.948,1.223 C10.158,0.984 10.318,0.704 10.415,0.396 C10.437,0.327 10.415,0.252 10.358,0.207 C10.302,0.161 10.224,0.156 10.162,0.193 C9.786,0.418 9.381,0.579 8.955,0.673 C8.527,0.252 7.945,0.012 7.343,0.012 C6.073,0.012 5.040,1.053 5.040,2.332 C5.040,2.432 5.047,2.533 5.059,2.632 C3.483,2.492 2.018,1.712 1.012,0.469 C0.976,0.424 0.921,0.401 0.865,0.405 C0.808,0.410 0.757,0.442 0.729,0.491 C0.525,0.844 0.417,1.247 0.417,1.657 C0.417,2.217 0.615,2.747 0.965,3.162 C0.858,3.125 0.755,3.078 0.657,3.023 C0.604,2.994 0.539,2.994 0.487,3.024 C0.434,3.055 0.401,3.110 0.400,3.171 C0.399,3.182 0.399,3.192 0.399,3.203 C0.399,4.037 0.845,4.788 1.527,5.198 C1.468,5.192 1.410,5.183 1.352,5.172 C1.292,5.161 1.230,5.181 1.189,5.228 C1.149,5.274 1.136,5.338 1.154,5.396 C1.407,6.190 2.056,6.773 2.841,6.952 C2.190,7.363 1.445,7.578 0.663,7.578 C0.500,7.578 0.336,7.568 0.176,7.549 C0.096,7.540 0.020,7.587 -0.008,7.663 C-0.035,7.740 -0.006,7.825 0.062,7.869 C1.066,8.518 2.228,8.861 3.420,8.861 C5.765,8.861 7.232,7.747 8.049,6.812 C9.069,5.647 9.654,4.105 9.654,2.580 C9.654,2.517 9.653,2.453 9.651,2.388 C10.053,2.084 10.399,1.714 10.681,1.289 C10.724,1.225 10.719,1.140 10.670,1.080 C10.620,1.021 10.538,1.001 10.467,1.033 Z" class="cls-1"/>
</svg>
