<svg xmlns="http://www.w3.org/2000/svg" viewBox="0 0 10.73 8.85"><defs><style>.cls-1{fill:#00ac97;}</style></defs><title>tw-share-hv</title><g id="Слой_2" data-name="Слой 2"><g id="Слой_1-2" data-name="Слой 1"><path id="_Контур_" data-name="&lt;Контур&gt;" class="cls-1" d="M10.49,1a4,4,0,0,1-.52.19,2.3,2.3,0,0,0,.47-.83A.17.17,0,0,0,10.38.2a.17.17,0,0,0-.2,0A4,4,0,0,1,9,.66,2.3,2.3,0,0,0,5.06,2.32a2.5,2.5,0,0,0,0,.3A5.89,5.89,0,0,1,1,.46.17.17,0,0,0,.88.39.17.17,0,0,0,.75.48,2.34,2.34,0,0,0,1,3.15,1.9,1.9,0,0,1,.68,3a.17.17,0,0,0-.26.15s0,0,0,0a2.33,2.33,0,0,0,1.13,2l-.17,0a.17.17,0,0,0-.16.06.18.18,0,0,0,0,.17A2.31,2.31,0,0,0,2.86,6.94a4.05,4.05,0,0,1-2.18.63l-.49,0a.17.17,0,0,0-.11.32,6.18,6.18,0,0,0,3.36,1,6,6,0,0,0,4.63-2A6.52,6.52,0,0,0,9.67,2.57q0-.09,0-.19a4.47,4.47,0,0,0,1-1.1.18.18,0,0,0,0-.21A.17.17,0,0,0,10.49,1Z"/></g></g></svg>