<svg xmlns="http://www.w3.org/2000/svg" xmlns:xlink="http://www.w3.org/1999/xlink" preserveAspectRatio="xMidYMid" width="12.094" height="6.812" viewBox="0 0 12.094 6.812">
  <defs>
    <style>
      .cls-1 {
        fill: #fff;
        fill-rule: evenodd;
      }
    </style>
  </defs>
  <path d="M12.032,6.145 C12.017,6.113 12.004,6.087 11.991,6.067 C11.781,5.694 11.380,5.235 10.788,4.693 L10.776,4.680 L10.770,4.674 L10.763,4.668 L10.757,4.668 C10.488,4.414 10.318,4.245 10.247,4.157 C10.117,3.991 10.087,3.823 10.159,3.654 C10.209,3.525 10.398,3.253 10.725,2.838 C10.898,2.619 11.034,2.443 11.135,2.310 C11.861,1.357 12.176,0.746 12.079,0.481 L12.042,0.419 C12.017,0.382 11.951,0.348 11.846,0.317 C11.742,0.286 11.607,0.280 11.444,0.301 L9.630,0.314 C9.601,0.303 9.559,0.304 9.504,0.317 C9.450,0.329 9.422,0.335 9.422,0.335 L9.391,0.351 L9.366,0.369 C9.345,0.382 9.321,0.404 9.296,0.435 C9.271,0.466 9.250,0.502 9.234,0.544 C9.036,1.045 8.812,1.512 8.560,1.944 C8.404,2.200 8.262,2.423 8.131,2.612 C8.001,2.801 7.892,2.940 7.804,3.028 C7.716,3.117 7.636,3.189 7.565,3.244 C7.493,3.297 7.439,3.320 7.401,3.311 C7.363,3.303 7.328,3.295 7.294,3.287 C7.235,3.249 7.188,3.199 7.152,3.134 C7.117,3.070 7.092,2.989 7.080,2.891 C7.068,2.794 7.060,2.711 7.058,2.640 C7.056,2.569 7.057,2.469 7.061,2.341 C7.065,2.213 7.068,2.125 7.068,2.079 C7.068,1.923 7.070,1.751 7.077,1.567 C7.083,1.382 7.088,1.236 7.092,1.128 C7.097,1.020 7.099,0.906 7.099,0.786 C7.099,0.666 7.092,0.572 7.077,0.503 C7.062,0.435 7.040,0.368 7.011,0.304 C6.981,0.240 6.938,0.190 6.882,0.155 C6.825,0.120 6.755,0.092 6.671,0.071 C6.448,0.021 6.165,-0.005 5.821,-0.010 C5.040,-0.018 4.538,0.032 4.316,0.139 C4.228,0.185 4.148,0.247 4.076,0.326 C4.001,0.418 3.990,0.467 4.045,0.475 C4.297,0.512 4.475,0.602 4.580,0.742 L4.618,0.817 C4.647,0.871 4.677,0.967 4.706,1.103 C4.736,1.240 4.754,1.392 4.763,1.558 C4.784,1.860 4.784,2.120 4.763,2.335 C4.742,2.551 4.722,2.719 4.703,2.838 C4.684,2.959 4.656,3.056 4.618,3.131 C4.580,3.206 4.555,3.252 4.542,3.268 C4.530,3.285 4.519,3.295 4.511,3.299 C4.456,3.320 4.400,3.330 4.341,3.330 C4.282,3.330 4.211,3.301 4.127,3.243 C4.043,3.185 3.956,3.105 3.865,3.003 C3.775,2.902 3.673,2.760 3.560,2.577 C3.447,2.395 3.329,2.179 3.208,1.931 L3.107,1.750 C3.044,1.634 2.958,1.465 2.849,1.243 C2.739,1.021 2.643,0.807 2.559,0.599 C2.525,0.512 2.475,0.446 2.408,0.401 L2.376,0.381 C2.356,0.365 2.322,0.348 2.276,0.329 C2.229,0.311 2.181,0.297 2.131,0.288 L0.405,0.301 C0.229,0.301 0.110,0.340 0.047,0.419 L0.021,0.456 C0.009,0.477 0.002,0.510 0.002,0.556 C0.002,0.602 0.015,0.657 0.040,0.724 C0.292,1.308 0.566,1.873 0.862,2.416 C1.158,2.959 1.415,3.396 1.633,3.728 C1.852,4.060 2.074,4.373 2.301,4.667 C2.527,4.962 2.678,5.150 2.751,5.233 C2.824,5.316 2.882,5.378 2.924,5.419 L3.081,5.569 C3.182,5.669 3.330,5.788 3.525,5.927 C3.721,6.066 3.937,6.202 4.174,6.338 C4.411,6.472 4.687,6.582 5.002,6.667 C5.317,6.752 5.623,6.786 5.921,6.769 L6.646,6.769 C6.792,6.757 6.904,6.711 6.979,6.632 L7.004,6.601 C7.021,6.577 7.037,6.538 7.052,6.486 C7.066,6.435 7.073,6.378 7.073,6.316 C7.069,6.137 7.083,5.977 7.114,5.833 C7.146,5.690 7.182,5.583 7.222,5.510 C7.261,5.438 7.307,5.377 7.357,5.327 C7.407,5.277 7.443,5.247 7.464,5.237 C7.485,5.226 7.502,5.219 7.514,5.215 C7.615,5.181 7.734,5.213 7.870,5.312 C8.007,5.409 8.135,5.529 8.254,5.672 C8.374,5.815 8.518,5.976 8.685,6.154 C8.854,6.332 9.000,6.465 9.126,6.552 L9.252,6.627 C9.336,6.677 9.445,6.722 9.580,6.764 C9.714,6.806 9.831,6.815 9.932,6.795 L11.544,6.770 C11.704,6.770 11.828,6.743 11.916,6.692 C12.004,6.640 12.056,6.584 12.073,6.521 C12.090,6.459 12.091,6.388 12.076,6.309 C12.061,6.231 12.047,6.176 12.032,6.145 Z" class="cls-1"/>
</svg>
