<svg xmlns="http://www.w3.org/2000/svg" xmlns:xlink="http://www.w3.org/1999/xlink" preserveAspectRatio="xMidYMid" width="12.094" height="8.188" viewBox="0 0 12.094 8.188">
  <defs>
    <style>
      .cls-1 {
        fill: #fff;
        fill-rule: evenodd;
      }
    </style>
  </defs>
  <path d="M11.633,0.707 C11.196,0.209 10.390,0.006 8.849,0.006 L3.257,0.006 C1.682,0.006 0.861,0.222 0.426,0.752 C0.002,1.270 0.002,2.033 0.002,3.088 L0.002,5.099 C0.002,7.144 0.505,8.182 3.257,8.182 L8.849,8.182 C10.185,8.182 10.925,8.002 11.404,7.563 C11.895,7.111 12.105,6.375 12.105,5.099 L12.105,3.088 C12.105,1.975 12.072,1.208 11.633,0.707 ZM7.772,4.371 L5.233,5.645 C5.176,5.674 5.114,5.688 5.052,5.688 C4.982,5.688 4.912,5.670 4.850,5.634 C4.733,5.566 4.662,5.444 4.662,5.313 L4.662,2.774 C4.662,2.643 4.733,2.521 4.849,2.453 C4.966,2.385 5.111,2.381 5.232,2.441 L7.771,3.706 C7.900,3.771 7.981,3.899 7.982,4.039 C7.982,4.179 7.901,4.307 7.772,4.371 Z" class="cls-1"/>
</svg>
