<svg xmlns="http://www.w3.org/2000/svg" preserveAspectRatio="xMidYMid" width="67" height="77" viewBox="0 0 67 77"><defs><style>.cls-1{fill:#20aa97;fill-rule:evenodd}</style></defs><path d="M65.572 71.787H40.179v1.35c0 2.125-1.687 3.853-3.76 3.853v-.002c-.432-.019-2.16-.274-13.371-1.936L3.222 72.117C1.386 71.846 0 70.206 0 68.303V8.68c0-1.902 1.385-3.542 3.222-3.814L35.882.031a3.699 3.699 0 0 1 2.971.877 3.887 3.887 0 0 1 1.326 2.938v.98h25.393c.788 0 1.427.643 1.427 1.437V70.35c0 .794-.639 1.437-1.427 1.437zM37.326 70.35V3.846a1.01 1.01 0 0 0-.338-.763.844.844 0 0 0-.693-.209L3.637 7.709c-.447.066-.784.483-.784.971v59.623c0 .487.337.905.784.971l19.826 2.936c9.992 1.48 12.501 1.85 12.944 1.906.557.005.919-.433.919-.979v-2.418c0-.065.029-.121.037-.184-.008-.063-.037-.119-.037-.185zm2.853-6.167h19.295V13.112H40.179v51.071zM64.146 7.7H40.179v2.538H60.9c.788 0 1.426.644 1.426 1.437V65.62c0 .794-.638 1.437-1.426 1.437H40.179v1.856h23.967V7.7zM31.144 42.599a1.431 1.431 0 0 1-1.427-1.437v-5.029c0-.794.638-1.437 1.427-1.437.788 0 1.426.643 1.426 1.437v5.029c0 .794-.638 1.437-1.426 1.437z" class="cls-1"/></svg>