<svg xmlns="http://www.w3.org/2000/svg" preserveAspectRatio="xMidYMid" width="73" height="71" viewBox="0 0 73 71"><defs><style>.cls-1{fill:#20aa97;fill-rule:evenodd}</style></defs><path d="M64.83 71.004H3.594c-1.976 0-3.584-1.598-3.584-3.563V21.785c0-1.964 1.608-3.562 3.584-3.562h3.559c.024-.027.034-.06.06-.085L25.584.977c1.295-1.292 3.686-1.319 5.039.027l4.49 4.195 4.22-4.195c1.353-1.346 3.715-1.346 5.068 0l18.342 17.134c.026.025.036.058.06.085h2.027c4.508 0 8.177 3.646 8.177 8.128v36.525c0 4.482-3.669 8.128-8.177 8.128zM28.831 2.842c-.44-.434-1.073-.406-1.455-.028L10.882 18.223h34.413L28.831 2.842zm13.778 0c-.44-.434-1.073-.406-1.455-.028l-4.163 4.139 11.974 11.185c.026.025.036.058.06.085h10.048L42.609 2.842zm18.637 23.509c0-3.071-2.513-5.568-5.601-5.568H3.594c-.556 0-1.009.45-1.009 1.002v45.656c0 .553.453 1.003 1.009 1.003h52.051c3.088 0 5.601-2.498 5.601-5.568v-5.568H51.052c-7.041 0-12.769-5.694-12.769-12.695 0-6.999 5.728-12.693 12.769-12.693h10.194v-5.569zm9.185 0c0-3.071-2.512-5.568-5.601-5.568h-3.244a8.065 8.065 0 0 1 2.236 5.568v5.569h5.601c.352 0 .686.066 1.008.161v-5.73zm0 9.131c0-.552-.452-1.002-1.008-1.002H51.052c-5.621 0-10.194 4.546-10.194 10.133 0 5.588 4.573 10.135 10.194 10.135h18.371c.556 0 1.008-.451 1.008-1.003V35.482zm0 21.665a3.578 3.578 0 0 1-1.008.161h-5.601v5.568a8.065 8.065 0 0 1-2.236 5.568h3.244c3.089 0 5.601-2.498 5.601-5.568v-5.729zm-19.379-7.771c-2.641 0-4.79-2.137-4.79-4.763s2.149-4.762 4.79-4.762c2.642 0 4.791 2.136 4.791 4.762 0 2.626-2.149 4.763-4.791 4.763zm0-6.965a2.21 2.21 0 0 0-2.214 2.202 2.21 2.21 0 0 0 2.214 2.203 2.211 2.211 0 0 0 2.216-2.203 2.211 2.211 0 0 0-2.216-2.202z" class="cls-1"/></svg>