<svg xmlns="http://www.w3.org/2000/svg" preserveAspectRatio="xMidYMid" width="90" height="77" viewBox="0 0 90 77"><defs><style>.cls-1{fill:#20aa97;fill-rule:evenodd}</style></defs><path d="M81.867 38.993v35.151h.603c.785 0 1.42.641 1.42 1.433s-.635 1.432-1.42 1.432H7.417c-.785 0-1.42-.64-1.42-1.432 0-.792.635-1.433 1.42-1.433h.806V39.028A12.444 12.444 0 0 1 .004 27.313c0-.01.005-.017.006-.027-.016-.248.03-.5.144-.729l10.892-21.98a1.422 1.422 0 0 1 1.271-.792h65.357c.538 0 1.029.307 1.271.792l10.893 21.98c.114.229.16.481.145.73 0 .009.005.017.005.026 0 5.367-3.392 9.938-8.121 11.68zM33.333 74.144h45.693v-34.47c-.451.051-.907.082-1.371.082-4.703 0-8.796-2.671-10.875-6.585-2.08 3.913-6.168 6.585-10.869 6.585-4.734 0-8.847-2.707-10.914-6.664-2.067 3.957-6.181 6.664-10.914 6.664-.253 0-.501-.023-.75-.039v34.427zm31.97-45.514H46.517c.639 4.658 4.602 8.26 9.394 8.26 4.79 0 8.752-3.602 9.392-8.26zm-21.828 0H24.689c.64 4.658 4.603 8.26 9.394 8.26 4.79 0 8.753-3.602 9.392-8.26zM11.063 74.144h19.43v-34.93c-3.144-.967-5.758-3.168-7.286-6.043-2.08 3.913-6.168 6.585-10.87 6.585-.43 0-.855-.023-1.274-.067v34.455zm1.274-37.254c4.792 0 8.755-3.602 9.394-8.26H2.945c.64 4.658 4.602 8.26 9.392 8.26zM76.796 6.65H13.195L3.723 25.764H86.27L76.796 6.65zm-8.534 21.98c.64 4.658 4.603 8.26 9.393 8.26 4.79 0 8.753-3.602 9.392-8.26H68.262zm-45.96-17.381a1.415 1.415 0 0 1 1.93-.56c.687.383.935 1.255.555 1.947L19.6 22.093a1.417 1.417 0 0 1-1.93.559 1.44 1.44 0 0 1-.555-1.947l5.187-9.456zm9.683 0a1.415 1.415 0 0 1 1.93-.56c.687.383.935 1.255.555 1.947l-5.187 9.457a1.417 1.417 0 0 1-1.93.559 1.438 1.438 0 0 1-.555-1.947l5.187-9.456zm12.688-1.229c.785 0 1.42.641 1.42 1.433v10.434c0 .792-.635 1.433-1.42 1.433-.785 0-1.42-.641-1.42-1.433V11.453c0-.792.635-1.433 1.42-1.433zm10.415.431a1.415 1.415 0 0 1 1.866.749l4.19 9.806c.311.727-.02 1.57-.741 1.883a1.4 1.4 0 0 1-.561.118c-.55 0-1.073-.325-1.305-.866l-4.191-9.807c-.31-.727.021-1.57.742-1.883zm9.68 0a1.414 1.414 0 0 1 1.867.749l4.192 9.806c.311.727-.02 1.57-.74 1.883a1.412 1.412 0 0 1-1.867-.748l-4.192-9.807a1.437 1.437 0 0 1 .74-1.883zm-37.849 38.18c.785 0 1.42.641 1.42 1.433v4.355c0 .792-.635 1.433-1.42 1.433-.785 0-1.42-.641-1.42-1.433v-4.355c0-.792.635-1.433 1.42-1.433zm25.996-.76a1.41 1.41 0 0 1 2.008 0 1.44 1.44 0 0 1 0 2.026l-6.213 6.267a1.409 1.409 0 0 1-2.008 0 1.44 1.44 0 0 1 0-2.026l6.213-6.267zm7.464 2.156a1.412 1.412 0 0 1 2.008 0 1.44 1.44 0 0 1 0 2.026l-10.57 10.665a1.413 1.413 0 0 1-2.009 0 1.444 1.444 0 0 1 0-2.027l10.571-10.664zm2.219 7.612a1.41 1.41 0 0 1 2.008 0 1.44 1.44 0 0 1 0 2.025l-6.213 6.269a1.412 1.412 0 0 1-2.008 0 1.442 1.442 0 0 1 0-2.027l6.213-6.267zM77.789 2.858H12.58c-.785 0-1.42-.641-1.42-1.433 0-.791.635-1.432 1.42-1.432h65.209c.785 0 1.42.641 1.42 1.432 0 .792-.635 1.433-1.42 1.433z" class="cls-1"/></svg>