<svg xmlns="http://www.w3.org/2000/svg" preserveAspectRatio="xMidYMid" width="76" height="77" viewBox="0 0 76 77"><defs><style>.cls-1{fill:#20aa97;fill-rule:evenodd}</style></defs><path d="M74.622 77.014H1.375a1.385 1.385 0 1 1 0-2.771h3.256V1.389c0-.765.621-1.385 1.387-1.385h35.117c.767 0 1.387.62 1.387 1.385v24.614h19.421c.767 0 1.387.621 1.387 1.386V63.39c1.38.218 2.877.723 4.215 1.775 2.366 1.858 3.625 4.914 3.773 9.078h3.304a1.386 1.386 0 1 1 0 2.771zm-45.173-2.771c.185-2.948 1.152-5.035 2.89-6.21 1.788-1.208 3.908-1.094 5.334-.805.265-.911.752-2.121 1.615-3.247-3.519-2.326-6.285.29-6.614.629a1.402 1.402 0 0 1-1.648.262c-2.783-1.475-5.189-1.802-7.143-.986-3.015 1.26-4.194 4.936-4.204 4.973a1.39 1.39 0 0 1-1.329.987c-4.583 0-5.998 2.666-6.438 4.397h17.537zM39.748 2.775H7.405v71.468h1.664c.252-1.431.906-3.101 2.194-4.47v-1.312a1.386 1.386 0 0 1 2.663-.543c.972-.424 2.111-.717 3.455-.81.386-.894 1.116-2.27 2.278-3.523-.627-.133-1.108-.663-1.108-1.33v-4.064c0-.766.621-1.386 1.388-1.386.766 0 1.387.62 1.387 1.386v3.965c.457-.31.941-.598 1.487-.826a8.486 8.486 0 0 1 3.016-.652v-2.487a1.386 1.386 0 0 1 2.774 0v2.798a14.82 14.82 0 0 1 2.849 1 8.575 8.575 0 0 1 1.665-1.014V27.389c0-.765.62-1.386 1.386-1.386h5.245V2.775zm-3.857 26v31.474c1.679-.115 3.575.335 5.511 1.823 1.951-1.202 4.39-1.512 7.278-.903 1.051-.73 3.366-2.039 5.996-1.558.098.018.192.048.289.071a1.386 1.386 0 0 1-.846-1.276v-4.065a1.386 1.386 0 0 1 2.774 0v4.065a1.385 1.385 0 0 1-1.916 1.279c1.847.429 3.433 1.659 4.719 3.681.249-.035.544-.063.86-.086V28.775H35.891zm29.954 38.579c-2.629-2.08-6.461-1.115-6.5-1.107a1.39 1.39 0 0 1-1.575-.683c-1.018-1.892-2.226-2.979-3.592-3.228-2.173-.392-4.249 1.356-4.268 1.374a1.398 1.398 0 0 1-1.252.299c-2.54-.643-4.57-.455-6.03.555-.084.058-.148.13-.227.192-.013.014-.016.033-.029.047-.047.049-.107.071-.158.112-1.736 1.521-2.073 3.921-2.086 4.027.005.19-.024.383-.102.569a1.389 1.389 0 0 1-1.811.742c-.027-.01-2.647-1.067-4.329.08-1.121.764-1.537 2.367-1.656 3.91h36.32c-.128-3.251-1.034-5.567-2.705-6.889zM55.506 49.52c-.766 0-1.387-.62-1.387-1.385V44.07a1.387 1.387 0 0 1 2.774 0v4.065c0 .765-.62 1.385-1.387 1.385zm0-10.27a1.387 1.387 0 0 1-1.387-1.386v-4.065a1.386 1.386 0 0 1 2.774 0v4.065c0 .765-.62 1.386-1.387 1.386zm-7.287 20.541a1.385 1.385 0 0 1-1.387-1.385v-4.065c0-.766.62-1.386 1.387-1.386s1.387.62 1.387 1.386v4.065c0 .766-.62 1.385-1.387 1.385zm0-10.271c-.767 0-1.387-.62-1.387-1.385V44.07a1.386 1.386 0 0 1 2.774 0v4.065c0 .765-.62 1.385-1.387 1.385zm0-10.27a1.386 1.386 0 0 1-1.387-1.386v-4.065c0-.766.62-1.386 1.387-1.386s1.387.62 1.387 1.386v4.065c0 .765-.62 1.386-1.387 1.386zm-7.278 20.541a1.385 1.385 0 0 1-1.387-1.385v-4.065a1.386 1.386 0 0 1 2.774 0v4.065c0 .766-.62 1.385-1.387 1.385zm0-10.271c-.766 0-1.387-.62-1.387-1.385V44.07a1.387 1.387 0 0 1 2.774 0v4.065c0 .765-.62 1.385-1.387 1.385zm0-10.27a1.387 1.387 0 0 1-1.387-1.386v-4.065a1.386 1.386 0 0 1 2.774 0v4.065c0 .765-.62 1.386-1.387 1.386zm-7.824-18.067v-4.065a1.386 1.386 0 1 1 2.774 0v4.065a1.387 1.387 0 0 1-2.774 0zm1.386-8.884a1.386 1.386 0 0 1-1.386-1.386V6.847a1.386 1.386 0 1 1 2.774 0v4.066c0 .765-.621 1.386-1.388 1.386zm-7.287 41.072c-.766 0-1.387-.62-1.387-1.386V47.92c0-.765.621-1.385 1.387-1.385.767 0 1.387.62 1.387 1.385v4.065c0 .766-.62 1.386-1.387 1.386zm0-10.271c-.766 0-1.387-.62-1.387-1.385v-4.066a1.387 1.387 0 0 1 2.774 0v4.066c0 .765-.62 1.385-1.387 1.385zm0-10.261c-.766 0-1.387-.62-1.387-1.385v-4.065a1.387 1.387 0 0 1 2.774 0v4.065c0 .765-.62 1.385-1.387 1.385zm0-10.27a1.387 1.387 0 0 1-1.387-1.386v-4.065a1.387 1.387 0 0 1 2.774 0v4.065c0 .765-.62 1.386-1.387 1.386zm0-10.27a1.387 1.387 0 0 1-1.387-1.386V6.847c0-.765.621-1.385 1.387-1.385.767 0 1.387.62 1.387 1.385v4.066c0 .765-.62 1.386-1.387 1.386zm-7.277 41.072c-.767 0-1.388-.62-1.388-1.386V47.92c0-.765.621-1.385 1.388-1.385.766 0 1.387.62 1.387 1.385v4.065c0 .766-.621 1.386-1.387 1.386zm0-10.271c-.767 0-1.388-.62-1.388-1.385v-4.066a1.387 1.387 0 0 1 2.775 0v4.066c0 .765-.621 1.385-1.387 1.385zm0-10.261c-.767 0-1.388-.62-1.388-1.385v-4.065a1.387 1.387 0 0 1 2.775 0v4.065c0 .765-.621 1.385-1.387 1.385zm0-10.27a1.387 1.387 0 0 1-1.388-1.386v-4.065a1.387 1.387 0 0 1 2.775 0v4.065c0 .765-.621 1.386-1.387 1.386zm0-10.27a1.387 1.387 0 0 1-1.388-1.386V6.847c0-.765.621-1.385 1.388-1.385.766 0 1.387.62 1.387 1.385v4.066c0 .765-.621 1.386-1.387 1.386zm-7.278 51.342c-.767 0-1.387-.62-1.387-1.386v-4.064a1.386 1.386 0 1 1 2.774 0v4.064c0 .766-.621 1.386-1.387 1.386zm0-10.27c-.767 0-1.387-.62-1.387-1.386V47.92c0-.765.62-1.385 1.387-1.385.766 0 1.387.62 1.387 1.385v4.065c0 .766-.621 1.386-1.387 1.386zm0-10.271c-.767 0-1.387-.62-1.387-1.385v-4.066a1.386 1.386 0 0 1 2.774 0v4.066c0 .765-.621 1.385-1.387 1.385zm0-10.261c-.767 0-1.387-.62-1.387-1.385v-4.065a1.386 1.386 0 0 1 2.774 0v4.065c0 .765-.621 1.385-1.387 1.385zm0-10.27a1.386 1.386 0 0 1-1.387-1.386v-4.065a1.386 1.386 0 0 1 2.774 0v4.065c0 .765-.621 1.386-1.387 1.386zm0-10.27a1.386 1.386 0 0 1-1.387-1.386V6.847c0-.765.62-1.385 1.387-1.385.766 0 1.387.62 1.387 1.385v4.066c0 .765-.621 1.386-1.387 1.386z" class="cls-1"/></svg>