<svg xmlns="http://www.w3.org/2000/svg" preserveAspectRatio="xMidYMid" width="68" height="77" viewBox="0 0 68 77"><defs><style>.cls-1{fill:#20aa97;fill-rule:evenodd}</style></defs><path d="M66.582 77.004H1.418A1.411 1.411 0 0 1 0 75.597c0-.778.634-1.407 1.418-1.407h.399c.165-5.308 2.278-9.837 6.208-13.147 4.369-3.676 10.563-5.514 17.92-5.427L10.452 35.96a3.643 3.643 0 0 1-.146-.195v.001c-.001 0-.033-.049-.062-.098-.015-.024-.095-.165-.109-.189l-.067-.136a3.437 3.437 0 0 1-.116-.296c-.011-.037-.039-.126-.047-.163-.001 0-.019-.065-.032-.129a3.437 3.437 0 0 1-.045-.284 9.785 9.785 0 0 1-.017-.237 4.391 4.391 0 0 1 .011-.344 7.5 7.5 0 0 1 .036-.256c.004-.012.052-.225.055-.238a3.325 3.325 0 0 1 .161-.432c.007-.019.039-.088.075-.153.026-.047.109-.186.139-.229l7.775-12.353c.024-.039.078-.118.105-.154l.128-.165c.036-.043.163-.178.204-.217a2.123 2.123 0 0 1 .33-.272c.023-.016.127-.088.152-.102a3.223 3.223 0 0 1 .468-.236l.061-.022a2.747 2.747 0 0 1 .747-.165c.022-.002.226-.012.248-.012h31.455c.025 0 .129.003.154.005l.28.028a3.11 3.11 0 0 1 .548.138c.062.021.124.048.182.076-.027-.018.039.012.124.054.116.06.181.097.247.137.045.028.193.133.236.166l-.017-.013.066.052c.028.022.142.12.168.145l.155.159.194.239c.033.044.109.159.137.207l7.785 12.366c.009.011.07.116.078.128l.091.181.064.145c.026.066.051.132.072.198.012.042.058.212.068.255.007.032.037.204.041.236.01.064.025.302.025.367 0 .036-.007.206-.01.242a3.33 3.33 0 0 1-.027.221 3.333 3.333 0 0 1-.182.637 6.205 6.205 0 0 1-.11.233 4.392 4.392 0 0 1-.207.333 6.952 6.952 0 0 1-.13.17L46.826 53.981c3.998.085 7.745 1.204 10.971 3.408 5.328 3.639 8.559 9.738 9.05 16.854.652.127 1.152.67 1.152 1.354 0 .778-.634 1.407-1.417 1.407zM29.703 55.819c.714.068 1.436.153 2.167.254l-7.03-20.379H13.841l15.862 20.125zm5.347.782c.062.013.122.021.184.034.236-.011.815-.327 1.148-.512.383-.213.78-.432 1.202-.582.1-.036.199-.056.299-.091.003-.008 0-.017.003-.026l6.706-19.73H27.837l7.213 20.907zM20.183 22.194L13.442 32.88h10.427l-3.686-10.686zm2.826-.496l3.215 9.321 7.728-9.321H23.009zm5.344 11.182h15.763l-7.881-9.508-7.882 9.508zm10.165-11.183l7.682 9.268 3.15-9.268H38.518zm13.699.365L48.539 32.88h10.456l-6.778-10.818zm6.329 13.632H47.583L41.177 54.54c.593-.128 1.187-.26 1.774-.345l15.595-18.501zm-2.355 24.013c-4.853-3.316-11.118-3.853-17.646-1.52-.248.09-.511.244-.785.395-.847.468-1.9 1.045-3.086.812-10.568-2.123-19.383-.777-24.815 3.795-3.273 2.756-5.047 6.543-5.212 11.001h59.359c-.489-6.147-3.27-11.379-7.815-14.483zm-11.448 1.707c4.342-.183 8.13 1.234 11.307 4.162a1.4 1.4 0 0 1 .073 1.988 1.415 1.415 0 0 1-1.038.449c-.346 0-.692-.125-.964-.376-2.643-2.435-5.688-3.547-9.267-3.412-.75.063-1.441-.574-1.471-1.351a1.41 1.41 0 0 1 1.36-1.46zm7.874-48.574a1.42 1.42 0 0 1-2.004 0 1.4 1.4 0 0 1 0-1.99l3.997-3.968a1.424 1.424 0 0 1 2.005 0 1.4 1.4 0 0 1 0 1.989l-3.998 3.969zM36.142 8.413c-.783 0-1.417-.63-1.417-1.407V1.393c0-.777.634-1.407 1.417-1.407.784 0 1.418.63 1.418 1.407v5.613c0 .777-.634 1.407-1.418 1.407zm-15.308 4.84c-.363 0-.725-.138-1.002-.413l-3.997-3.969a1.398 1.398 0 0 1 0-1.989c.553-.55 1.45-.55 2.004 0l3.997 3.968a1.4 1.4 0 0 1 0 1.99 1.418 1.418 0 0 1-1.002.413z" class="cls-1"/></svg>