<svg xmlns="http://www.w3.org/2000/svg" preserveAspectRatio="xMidYMid" width="43.062" height="52" viewBox="0 0 43.062 52"><defs><style>.cls-1{fill:#3ab09f;fill-rule:evenodd}</style></defs><path d="M34.2 44.05c-5.613 6.127-11.857 7.852-12.12 7.923a.918.918 0 0 1-.549-.02.95.95 0 0 1-.55.02c-.263-.071-6.506-1.796-12.119-7.923C3.748 38.469-1.838 27.999.59 9.818A2.138 2.138 0 0 1 2.694 7.97c6.54-.038 12.693-2.64 17.323-7.326.398-.405.994-.644 1.519-.633.558 0 1.11.23 1.508.632C27.675 5.33 33.828 7.932 40.371 7.97a2.136 2.136 0 0 1 2.1 1.847C44.9 27.999 39.314 38.469 34.2 44.05zm6.418-33.985a.26.26 0 0 0-.255-.224C33.318 9.799 26.696 7 21.715 1.959a.261.261 0 0 0-.185-.077h-.002a.252.252 0 0 0-.18.075C16.366 7 9.744 9.799 2.702 9.841a.26.26 0 0 0-.258.225C.111 27.53 5.396 37.499 10.241 42.786c5.226 5.705 11.166 7.365 11.225 7.38l.065.02.065-.02c.059-.015 5.998-1.675 11.225-7.38 4.845-5.287 10.13-15.256 7.797-32.721zm-18.627 34.64a1.734 1.734 0 0 1-.926 0c-.184-.05-4.689-1.295-8.726-5.702-2.976-3.247-6.173-8.798-6.349-17.718l-.001-.022c-.04-2.073.083-4.327.41-6.777a1.787 1.787 0 0 1 1.762-1.546c4.568-.027 8.867-1.846 12.103-5.12a1.76 1.76 0 0 1 1.256-.529c.503-.008.945.19 1.279.53 3.234 3.273 7.534 5.092 12.105 5.119a1.787 1.787 0 0 1 1.759 1.547c1.738 13.007-2.271 20.511-5.94 24.516-4.037 4.407-8.542 5.652-8.732 5.702zM7.911 18.83l4.213-4.476a18.838 18.838 0 0 1-3.882.456 43.735 43.735 0 0 0-.331 4.02zm12.685-8.78a19.15 19.15 0 0 1-4.917 3.135.928.928 0 0 1-.199.331l-7.586 8.059c.037 1.161.108 2.282.243 3.321l12.459-12.593V10.05zm0 4.913l-10.023 10.13h4.11c.008-.009.011-.02.019-.029l5.894-5.896v-4.205zm0 6.85l-3.279 3.28h3.279v-3.28zm0 5.151H8.475c1.032 5.082 3.189 8.534 5.242 10.775 2.61 2.849 5.441 4.245 6.879 4.82V26.964zm1.87 11.572l10.891-11.572h-3.143a.932.932 0 0 1-.272.656l-7.476 7.48v3.436zm0-6.082l5.487-5.49h-5.487v5.49zM34.819 14.81c-4.593-.045-8.92-1.735-12.353-4.76v15.043h12.439c.398-2.925.437-6.325-.086-10.283zM22.466 41.266v1.297c1.419-.575 4.271-1.978 6.878-4.824 1.783-1.946 3.643-4.81 4.778-8.858L22.466 41.266z" class="cls-1"/></svg>