<svg xmlns="http://www.w3.org/2000/svg" preserveAspectRatio="xMidYMid" width="94" height="69" viewBox="0 0 94 69"><defs><style>.cls-1{fill:#20aa97;fill-rule:evenodd}</style></defs><path d="M94.012 29.407a1.264 1.264 0 0 1-1.278 1.339 1.268 1.268 0 0 1-1.275-1.168C90.68 18.443 82.873 9.179 71.95 6.277l1.781 3.17a1.242 1.242 0 0 1-.504 1.703 1.289 1.289 0 0 1-.615.156c-.451 0-.89-.235-1.122-.65l-3.183-5.668a1.228 1.228 0 0 1-.108-.954c.094-.319.314-.589.611-.749l5.782-3.12a1.293 1.293 0 0 1 1.738.494c.34.607.114 1.369-.504 1.703l-2.921 1.576c11.827 3.268 20.259 13.358 21.107 25.469zM65.698 16.241H31.284a1.266 1.266 0 0 1-1.279-1.253c0-.693.572-1.254 1.279-1.254h34.414c.707 0 1.278.561 1.278 1.254 0 .692-.571 1.253-1.278 1.253zm6.994 2.398c0 .692-.572 1.254-1.279 1.254H25.358a1.267 1.267 0 0 1-1.279-1.254c0-.692.572-1.254 1.279-1.254h46.055c.707 0 1.279.562 1.279 1.254zm4.57 3.984v28.715c0 .693-.572 1.253-1.278 1.253h-54.52c-.707 0-1.279-.56-1.279-1.253V22.623c0-.693.572-1.254 1.279-1.254h54.52c.706 0 1.278.561 1.278 1.254zM22.743 50.084h4.388c-.508-2.07-2.229-3.671-4.388-4.039v4.039zm0-26.208v4.205c2.219-.378 3.988-2.052 4.44-4.205h-4.44zm51.962 0h-4.779c.474 2.26 2.404 3.981 4.779 4.239v-4.239zm0 6.776c-3.789-.277-6.848-3.129-7.364-6.776H29.768c-.5 3.538-3.394 6.331-7.025 6.747v12.88c3.574.41 6.433 3.123 7 6.581h37.624c.584-3.566 3.607-6.337 7.338-6.61V30.652zm0 15.36c-2.314.251-4.193 1.896-4.727 4.072h4.727v-4.072zm-25.262 2.679c-6.563 0-11.903-5.235-11.903-11.669s5.34-11.67 11.903-11.67c6.564 0 11.905 5.236 11.905 11.67s-5.341 11.669-11.905 11.669zm0-20.831c-5.153 0-9.345 4.11-9.345 9.162 0 5.052 4.192 9.161 9.345 9.161 5.154 0 9.347-4.109 9.347-9.161s-4.193-9.162-9.347-9.162zm3.435 10.75c0 1.433-.963 2.436-2.718 2.628v1.087h-1.352v-1.087c-.837-.078-1.526-.296-2.096-.618a.924.924 0 0 1-.3-1.347l.013-.017a.947.947 0 0 1 1.249-.265 3.715 3.715 0 0 0 1.914.527c.719 0 1.158-.275 1.158-.657 0-1.087-4.606-.216-4.606-3.285 0-1.206.938-2.293 2.668-2.497v-1.122h1.352v1.135a5.242 5.242 0 0 1 1.625.483c.512.252.628.925.28 1.372-.285.365-.788.452-1.208.247a3.937 3.937 0 0 0-1.696-.394c-.609 0-.877.239-.877.573 0 1.015 4.594.275 4.594 3.237zm-32.08 19.246a1.292 1.292 0 0 1 1.737.493l3.184 5.668c.164.291.202.634.109.953-.095.32-.315.589-.612.75l-5.783 3.12a1.29 1.29 0 0 1-.616.156c-.45 0-.889-.234-1.121-.649a1.241 1.241 0 0 1 .503-1.703l2.923-1.577C9.293 61.799.861 51.71.013 39.598a1.263 1.263 0 0 1 1.189-1.336c.737-.036 1.315.475 1.364 1.165.779 11.136 8.587 20.4 19.51 23.302l-1.781-3.17a1.241 1.241 0 0 1 .503-1.703z" class="cls-1"/></svg>