<svg xmlns="http://www.w3.org/2000/svg" preserveAspectRatio="xMidYMid" width="69" height="69" viewBox="0 0 69 69"><defs><style>.cls-1{fill:#20aa97;fill-rule:evenodd}</style></defs><path d="M67.686 43.144a4.302 4.302 0 0 1-.138.161L52.091 60.86a12.139 12.139 0 0 1-9.125 4.125H20.223l-3.666 3.641a1.26 1.26 0 0 1-.89.366 1.26 1.26 0 0 1-.879-.355L.373 54.685a1.247 1.247 0 0 1-.008-1.781l10.323-10.19c4.588-4.528 11.498-6.079 17.602-3.954l2.059.717h13.749c1.497 0 2.907.58 3.969 1.632a5.533 5.533 0 0 1 1.649 3.947l-.005.224a5.743 5.743 0 0 1-5.761 5.428l-.097-.001h-8.325a.448.448 0 0 0 .001.895h8.378c3.573 0 6.527-2.774 6.73-6.317.016-.281.127-.657.315-.868l7.748-8.666c2.074-2.376 5.663-2.716 8.161-.767 2.502 2.041 2.863 5.695.825 8.16zm-2.402-6.211c-1.42-1.109-3.491-.911-4.691.467l-7.467 8.351c-.435 4.709-4.423 8.351-9.218 8.351h-8.38c-1.633-.003-2.961-1.324-2.964-2.945-.002-1.624 1.327-2.948 2.963-2.95h8.402c1.75 0 3.172-1.331 3.269-3.051.001-.922-.322-1.696-.909-2.278a3.093 3.093 0 0 0-2.193-.901H30.135c-.141 0-.283-.024-.417-.071l-2.261-.787c-5.198-1.811-11.086-.49-14.995 3.368l-9.416 9.294 12.61 12.205 3.157-3.135c.236-.234.555-.366.889-.366h23.264a9.62 9.62 0 0 0 7.229-3.269l15.472-17.572c1.231-1.487 1.027-3.561-.383-4.711zM50.579 22.061c1.024 1.304.868 3.362-.446 4.666l-2.779 2.761c-1.208 1.202-3.299 1.405-4.731.431-.252 1.694-1.8 3.008-3.645 3.008h-3.9c-1.829 0-3.367-1.271-3.679-2.997-1.296.936-3.475.771-4.696-.442l-2.78-2.761c-1.259-1.317-1.416-3.247-.43-4.699-1.708-.25-3.031-1.789-3.031-3.621v-3.875c0-1.816 1.279-3.344 3.016-3.654-1.023-1.302-.868-3.36.445-4.666l2.78-2.761c1.326-1.252 3.271-1.408 4.729-.428.254-1.696 1.803-3.01 3.646-3.01h3.9c1.829 0 3.366 1.27 3.681 2.996 1.31-1.018 3.38-.863 4.695.442l2.768 2.751c1.298 1.235 1.471 3.216.443 4.71 1.707.249 3.03 1.787 3.03 3.62v3.875c0 1.816-1.279 3.343-3.016 3.654zm.499-7.529c0-.61-.415-1.098-.987-1.161l-1.91-.322a1.259 1.259 0 0 1-.95-.75 1.241 1.241 0 0 1 .129-1.197l1.031-1.47c.44-.562.416-1.223-.014-1.63l-.023-.022-2.779-2.761c-.427-.423-1.074-.493-1.479-.154l-1.612 1.137a1.261 1.261 0 0 1-1.966-.806l-.313-1.781c-.075-.673-.586-1.103-1.227-1.103h-3.9c-.614 0-1.106.413-1.17.982l-.324 1.897a1.246 1.246 0 0 1-.754.943 1.267 1.267 0 0 1-1.206-.127l-1.479-1.025c-.538-.413-1.229-.372-1.686.059L25.703 7.98c-.428.425-.496 1.07-.155 1.468l1.145 1.604c.248.349.299.801.134 1.197-.164.395-.521.68-.945.754l-1.793.312c-.679.075-1.111.582-1.111 1.217v3.875c0 .61.416 1.099.988 1.162l1.911.322a1.248 1.248 0 0 1 .82 1.947l-1.031 1.469c-.416.537-.375 1.221.06 1.676l2.756 2.737c.411.407 1.245.357 1.465.166.033-.028.067-.055.103-.08l1.525-1.069a1.262 1.262 0 0 1 1.965.806l.313 1.781c.075.674.585 1.103 1.225 1.103h3.9c.615 0 1.108-.412 1.17-.98l.326-1.9c.072-.421.358-.777.754-.942a1.264 1.264 0 0 1 1.206.128l1.478 1.024c.616.484 1.258.367 1.661-.035l2.781-2.762c.428-.425.496-1.071.156-1.469l-1.145-1.602c-.25-.349-.3-.802-.136-1.198.164-.396.522-.681.946-.754l1.793-.312c.678-.075 1.11-.582 1.11-1.218v-3.875zm-13.486 9.409c-4.147 0-7.52-3.352-7.52-7.471 0-4.12 3.373-7.471 7.52-7.471 4.147 0 7.521 3.351 7.521 7.471 0 4.119-3.374 7.471-7.521 7.471zm0-12.442c-2.758 0-5.003 2.23-5.003 4.971 0 2.74 2.245 4.971 5.003 4.971 2.759 0 5.004-2.231 5.004-4.971 0-2.741-2.245-4.971-5.004-4.971z" class="cls-1"/></svg>