<svg xmlns="http://www.w3.org/2000/svg" preserveAspectRatio="xMidYMid" width="63" height="69" viewBox="0 0 63 69"><defs><style>.cls-1{fill:#20aa97;fill-rule:evenodd}</style></defs><path d="M62.992 50.474c-.106.852-.447 1.568-1.01 2.13L48.228 66.413c-.372.365-.788.517-1.11.609l-6.46 1.886a2.51 2.51 0 0 1-.729.101c-1.387 0-2.561-1.138-2.561-2.486 0-.303.061-.566.113-.759l1.839-6.554c.113-.413.385-.801.592-1.053l10.282-10.312c.057-.228.151-.447.328-.625.178-.179.397-.273.624-.33l2.585-2.593c.656-.655 1.46-.999 2.325-.999.96 0 1.811.367 2.531 1.091l3.444 3.462.002.003c.634.642.969 1.489.969 2.452 0 .057-.003.113-.01.168zm-21.116 9.485a.267.267 0 0 1-.024.061l-1.751 6.263 6.28-1.832a.268.268 0 0 1 .05-.014l9.673-9.712-4.496-4.521-9.732 9.755zm18.272-10.217l-3.444-3.462c-.253-.254-.441-.306-.648-.306-.105 0-.251.025-.448.221l-2.116 2.12 4.494 4.52 2.119-2.127c.087-.087.186-.216.234-.484-.017-.272-.116-.405-.191-.482zm-9.838-5.838a1.335 1.335 0 0 1-1.331-1.338v-24.19c-.018 0-.033.01-.052.01h-14.69a1.334 1.334 0 0 1-1.331-1.338V2.664H2.875a.486.486 0 0 0-.204.241l.004 63.047c.001.07.131.2.2.202h31.523c.735 0 1.33.598 1.33 1.338 0 .739-.595 1.338-1.33 1.338H2.875c-1.524 0-2.862-1.345-2.862-2.878V2.864C.012 2.152.333 1.418.894.853c.554-.558 1.257-.865 1.981-.865h32.132c.749.058 1.467.29 2.001.81l13.788 13.863a2.91 2.91 0 0 1 .845 2.052v25.853c0 .739-.595 1.338-1.331 1.338zM35.567 3.132V15.71h12.509L35.567 3.132zm-8.529 43.054c0 .739-.595 1.338-1.331 1.338H11.638a1.334 1.334 0 0 1-1.331-1.338c0-.739.595-1.338 1.331-1.338h14.069c.736 0 1.331.599 1.331 1.338zm-7.93-22.841a1.334 1.334 0 0 1-1.331-1.338c0-.739.595-1.338 1.331-1.338h8.552c.736 0 1.331.599 1.331 1.338 0 .739-.595 1.338-1.331 1.338h-8.552zm16.658 5.542c0 .739-.595 1.338-1.331 1.338H12.66c-.735 0-1.33-.599-1.33-1.338 0-.739.595-1.338 1.33-1.338h21.775c.736 0 1.331.599 1.331 1.338zm-19.755 9.64c-.735 0-1.33-.599-1.33-1.338 0-.739.595-1.338 1.33-1.338h19.543c.736 0 1.331.599 1.331 1.338 0 .739-.595 1.338-1.331 1.338H16.011z" class="cls-1"/></svg>