<svg xmlns="http://www.w3.org/2000/svg" preserveAspectRatio="xMidYMid" width="75.031" height="69" viewBox="0 0 75.031 69"><defs><style>.cls-1{fill:#20aa97;fill-rule:evenodd}</style></defs><path d="M57.81 45.676a3.617 3.617 0 0 1 5.059 0l10.409 10.272a5.81 5.81 0 0 1 0 8.283l-3.111 3.071a5.96 5.96 0 0 1-4.198 1.712 5.957 5.957 0 0 1-4.195-1.712l-10.41-10.273a3.48 3.48 0 0 1-1.048-2.496c0-.942.372-1.828 1.048-2.495l2.422-2.391-4.538-4.479c-4.699 4.262-10.944 6.889-17.814 6.889-9.2 0-17.304-4.68-22.025-11.746l-7.226 7.013a1.285 1.285 0 0 1-.9.364c-.332 0-.664-.126-.915-.378a1.255 1.255 0 0 1 .015-1.792l7.685-7.458a25.566 25.566 0 0 1-3.01-12.03C5.058 11.679 16.89.003 31.434.003c9.4 0 17.645 4.893 22.317 12.217.03-.036.043-.081.078-.115l8.336-8.091h-5.103c-.71 0-1.284-.567-1.284-1.266 0-.7.574-1.267 1.284-1.267h8.036c.709 0 1.284.567 1.284 1.267v7.929c0 .699-.575 1.266-1.284 1.266a1.275 1.275 0 0 1-1.284-1.266V5.966l-8.185 7.945c-.2.195-.453.29-.711.328 1.835 3.545 2.892 7.545 2.892 11.791 0 6.662-2.571 12.728-6.758 17.336l4.549 4.49 2.209-2.18zM55.243 26.03c0-12.954-10.681-23.493-23.809-23.493-13.127 0-23.808 10.539-23.808 23.493 0 12.954 10.681 23.493 23.808 23.493 13.128 0 23.809-10.539 23.809-23.493zm-2.064 27.799a.988.988 0 0 0 0 1.409l10.41 10.273a3.407 3.407 0 0 0 4.763 0l3.111-3.072a3.295 3.295 0 0 0 0-4.7L61.054 47.467a1.014 1.014 0 0 0-.714-.291c-.258 0-.518.097-.715.292l-6.446 6.361zm-15.17-21.874c-.237.242-.56.382-.901.389a1.35 1.35 0 0 1-.915-.355l-9.729-9.243-9.606 9.238c-.25.24-.573.36-.897.36-.333 0-.668-.128-.919-.383a1.254 1.254 0 0 1 .023-1.791l10.498-10.094a1.296 1.296 0 0 1 1.786-.005l9.698 9.214 8.934-9.179a1.297 1.297 0 0 1 1.815-.036c.512.484.528 1.286.038 1.791l-9.825 10.094z" class="cls-1"/></svg>