<svg xmlns="http://www.w3.org/2000/svg" preserveAspectRatio="xMidYMid" width="48" height="44" viewBox="0 0 48 44"><defs><style>.cls-1{fill:#20aa97;fill-rule:evenodd}</style></defs><path d="M47.295 16.795c-.85 2.284-2.231 4.221-3.998 5.615-2.339 1.872-5.25 2.905-8.194 2.905-1.536 0-2.942-.24-4.297-.732-.957-.293-1.918-.771-2.972-1.485-.34.034-.648.034-.97.034h-.692c-.832 0-1.676-.167-2.806-.558a.871.871 0 0 1-.189-.042c-1.482-.568-2.33-1.468-2.518-2.674-.099-1.149.368-2.109 1.308-2.758l.751-.535c-.821-2.624-.782-5.4.12-8.065.853-2.296 2.235-4.233 4.002-5.626A13.116 13.116 0 0 1 39.314.695c3.278 1.101 5.905 3.405 7.394 6.485 1.485 3.074 1.694 6.489.587 9.615zm-2.06-8.924c-1.298-2.687-3.588-4.695-6.449-5.657a11.482 11.482 0 0 0-10.923 1.91c-1.54 1.214-2.744 2.909-3.487 4.906-.843 2.494-.822 5.12.071 7.57a.797.797 0 0 1-.289.922l-1.247.887c-.474.328-.679.738-.635 1.261.053.321.263.866 1.39 1.325.056.007.11.018.149.032.994.35 1.7.499 2.357.499h.692c.403 0 .694 0 1.044-.057a.832.832 0 0 1 .607.138c1.03.724 1.898 1.173 2.816 1.456 1.211.439 2.432.646 3.772.646 2.57 0 5.117-.905 7.17-2.549 1.54-1.214 2.744-2.91 3.488-4.906.959-2.712.775-5.694-.526-8.383zM40.7 13.318H30.605a.808.808 0 0 1-.814-.803c0-.443.364-.802.814-.802H40.7c.45 0 .815.359.815.802a.809.809 0 0 1-.815.803zm-3.713-3.933h-4.686a.809.809 0 0 1-.814-.803c0-.444.364-.803.814-.803h4.686c.451 0 .815.359.815.803a.809.809 0 0 1-.815.803zm-3.505 6.544h5.954c.451 0 .815.36.815.803a.808.808 0 0 1-.815.803h-5.954a.809.809 0 0 1-.815-.803.81.81 0 0 1 .815-.803zM22.677 30.274l.255-.318c.264-.33.528-.66.775-.972a6.22 6.22 0 0 1 1.076-1.002l.03-.029a.763.763 0 0 1 .067-.059 4.648 4.648 0 0 1 2.863-.995c.984 0 1.886.279 2.682.828a337.893 337.893 0 0 1 6.35 4.147c1.771 1.117 2.52 2.996 2.004 5.028-.802 2.486-1.999 4.309-3.676 5.619-.341.253-.579.407-.765.499l-.277.136c-1.381.562-2.719.835-4.034.835h-.139c-.71 0-1.525-.08-2.236-.22-4.161-.765-8.184-2.527-12.287-5.385-3.868-2.654-7.29-6.048-10.166-10.085a31.728 31.728 0 0 1-3.904-7.277C.528 18.91-.144 16.822-.001 14.421l.008-.106c.076-.924.305-3.738 2.739-5.537C4.055 7.765 5.351 7.032 6.695 6.55a5.295 5.295 0 0 1 1.594-.252c1.523 0 2.862.673 3.773 1.897.958 1.348 1.937 2.727 2.906 4.023l.699.965c.348.479.708.975 1.067 1.542.919 1.483.859 3.402-.151 4.895-.457.676-.929 1.215-1.402 1.605a50.39 50.39 0 0 1-1.045.883c.147.193.293.385.456.578 2.55 2.942 5.203 5.432 8.085 7.588zM12.508 21.33c.529-.391 1.081-.867 1.614-1.327.369-.303.735-.727 1.105-1.273.659-.975.706-2.216.12-3.161-.328-.518-.657-.972-1.005-1.453l-.693-.954a206.878 206.878 0 0 1-2.912-4.032c-.594-.797-1.444-1.226-2.448-1.226-.351 0-.746.061-1.058.163-1.158.415-2.307 1.067-3.492 1.985-1.861 1.375-2.04 3.567-2.107 4.392l-.008.091c-.123 2.083.471 3.923 1.202 5.939a30.12 30.12 0 0 0 3.706 6.902c2.767 3.884 6.053 7.146 9.769 9.695 3.912 2.726 7.724 4.4 11.661 5.123.62.122 1.318.191 1.926.191h.139c1.101 0 2.231-.232 3.359-.69l.223-.112c.043-.021.177-.096.499-.333 1.397-1.093 2.418-2.662 3.104-4.786.329-1.305-.148-2.503-1.323-3.241l-.019-.012a337.22 337.22 0 0 0-6.354-4.151c-1.098-.756-2.546-.734-3.584.062l-.036.035a.791.791 0 0 1-.088.075 4.684 4.684 0 0 0-.832.759c-.231.294-.499.627-.765.96l-.741.928a.823.823 0 0 1-1.125.155c-3.231-2.335-6.175-5.053-8.999-8.312-.188-.223-.352-.439-.516-.654a14.615 14.615 0 0 0-.46-.582.797.797 0 0 1 .138-1.156z" class="cls-1"/></svg>