<svg xmlns="http://www.w3.org/2000/svg" preserveAspectRatio="xMidYMid" width="70" height="69" viewBox="0 0 70 69"><defs><style>.cls-1{fill:#20aa97;fill-rule:evenodd}</style></defs><path d="M55.246 61.249c.703 0 1.271.562 1.271 1.257v3.977h12.22c.703 0 1.271.562 1.271 1.256 0 .695-.568 1.257-1.271 1.257H1.283a1.264 1.264 0 0 1-1.272-1.257V1.257C.011.563.58 0 1.283 0c.702 0 1.271.563 1.271 1.257v60.665l4.825-12.097c.159-.396.51-.687.933-.771.424-.082.861.051 1.162.358l4.276 4.355 5.846-10.981c.178-.334.5-.572.874-.646.377-.074.766.022 1.061.262l5.676 4.63 3.567-4.309c-5.371-4.316-8.814-10.891-8.814-18.251C21.96 11.504 32.633.953 45.752.953c13.119 0 23.792 10.551 23.792 23.519 0 12.969-10.673 23.52-23.792 23.52-4.761 0-9.19-1.404-12.914-3.795l-4.472 5.404a1.278 1.278 0 0 1-.86.454 1.272 1.272 0 0 1-.933-.281l-5.455-4.45-5.935 11.146a1.27 1.27 0 0 1-.943.659 1.268 1.268 0 0 1-1.094-.369l-4.125-4.201-5.553 13.924h14.531v-3.977c0-.695.568-1.257 1.271-1.257s1.271.562 1.271 1.257v3.977h15.445v-3.977c0-.695.569-1.257 1.271-1.257.703 0 1.271.562 1.271 1.257v3.977h15.447v-3.977c0-.695.568-1.257 1.271-1.257zm-9.494-15.77c11.717 0 21.25-9.424 21.25-21.007 0-11.583-9.533-21.006-21.25-21.006s-21.25 9.423-21.25 21.006 9.533 21.007 21.25 21.007zm-6.496-33.13c3.18 0 5.769 2.558 5.769 5.702s-2.589 5.702-5.769 5.702-5.767-2.558-5.767-5.702 2.587-5.702 5.767-5.702zm0 8.891c1.779 0 3.226-1.431 3.226-3.189s-1.447-3.189-3.226-3.189-3.225 1.431-3.225 3.189 1.446 3.189 3.225 3.189zm14.497-8.532a1.282 1.282 0 0 1 1.786-.196c.547.434.637 1.225.197 1.767L38.249 35.877a1.28 1.28 0 0 1-1.786.196 1.245 1.245 0 0 1-.197-1.766l17.487-21.599zm-1.505 12.483c3.181 0 5.767 2.558 5.767 5.702s-2.586 5.702-5.767 5.702c-3.18 0-5.769-2.558-5.769-5.702s2.589-5.702 5.769-5.702zm0 8.891c1.779 0 3.225-1.43 3.225-3.189 0-1.758-1.446-3.189-3.225-3.189-1.779 0-3.226 1.431-3.226 3.189 0 1.759 1.447 3.189 3.226 3.189z" class="cls-1"/></svg>