<svg xmlns="http://www.w3.org/2000/svg" preserveAspectRatio="xMidYMid" width="68" height="77" viewBox="0 0 68 77"><defs><style>.cls-1{fill:#20aa97;fill-rule:evenodd}</style></defs><path d="M66.615 28.622H59.28c-.773 0-1.399-.614-1.399-1.37 0-.757.626-1.371 1.399-1.371h7.335c.773 0 1.399.614 1.399 1.371 0 .756-.626 1.37-1.399 1.37zM52.9 13.877a1.408 1.408 0 0 1-.989.402c-.358 0-.716-.134-.989-.402a1.351 1.351 0 0 1 0-1.938l4.474-4.382a1.42 1.42 0 0 1 1.978 0 1.35 1.35 0 0 1 0 1.938L52.9 13.877zm-1.711 31.289c-3.958 5.863-5.135 10.017-5.476 11.722.247.247.402.585.402.958v11.488c0 3.481-2.891 6.312-6.443 6.312h-.494a1.383 1.383 0 0 1-1.396 1.36H31.6c-.77 0-1.391-.608-1.397-1.36h-.494c-3.552 0-6.442-2.831-6.442-6.312V57.846c0-.22.064-.42.159-.605-.221-1.455-1.178-5.877-5.144-12.036-1.745-2.848-2.857-5.896-3.231-8.839-.66-4.513.207-9.123 2.443-12.955 2.633-4.21 6.964-7.235 12.217-8.554 7.105-1.707 14.571.229 19.494 5.053 3.302 3.233 5.194 7.688 5.328 12.544.131 4.372-1.056 8.888-3.344 12.712zM26.064 69.334c0 1.97 1.636 3.572 3.645 3.572h9.963c2.01 0 3.645-1.602 3.645-3.572V59.217H26.064v10.117zm21.163-47.486c-4.237-4.15-10.687-5.81-16.836-4.333-4.53 1.138-8.261 3.729-10.49 7.292-1.906 3.269-2.652 7.258-2.077 11.196.329 2.592 1.31 5.268 2.84 7.765 3.941 6.12 5.122 10.683 5.473 12.708h16.817c.391-2.04 1.673-6.557 5.862-12.759 1.986-3.322 3.037-7.317 2.919-11.185-.113-4.156-1.714-7.949-4.508-10.684zM31.193 23.65c-2.212.879-3.969 2.286-5.37 4.304-.272.39-.711.599-1.159.599-.27 0-.545-.077-.785-.237a1.35 1.35 0 0 1-.369-1.904c1.698-2.445 3.929-4.228 6.631-5.302.714-.284 1.533.053 1.822.756a1.36 1.36 0 0 1-.77 1.784zm3.406-14.715c-.774 0-1.399-.614-1.399-1.371V1.367c0-.757.625-1.37 1.399-1.37.773 0 1.398.613 1.398 1.37v6.197c0 .757-.625 1.371-1.398 1.371zM17.47 14.279c-.358 0-.716-.134-.989-.402l-4.474-4.382a1.351 1.351 0 0 1 0-1.938 1.42 1.42 0 0 1 1.978 0l4.474 4.382a1.35 1.35 0 0 1 0 1.938 1.408 1.408 0 0 1-.989.402zM9.526 31.452H1.39c-.774 0-1.399-.613-1.399-1.37 0-.757.625-1.37 1.399-1.37h8.136c.774 0 1.399.613 1.399 1.37 0 .757-.625 1.37-1.399 1.37z" class="cls-1"/></svg>