<svg xmlns="http://www.w3.org/2000/svg" preserveAspectRatio="xMidYMid" width="59.969" height="77.97" viewBox="0 0 59.969 77.97"><defs><style>.cls-1{fill:#20aa97;fill-rule:evenodd}</style></defs><path d="M59.791 23.315c-5.414 9.5-15.206 15.554-25.823 16.097v3.302c.539.189 1.057.389 1.517.591 2.764 1.213 4.164 3.23 4.164 5.995-.007 2.088-.694 3.531-2.299 4.833a9.633 9.633 0 0 1-1.557 1.012l-1.825.982v12.035c.218.029.429.075.654.087.282.014.576.003.861-.021 2.767-.238 4.918-1.026 6.392-2.345a1.404 1.404 0 0 1 1.993.12 1.432 1.432 0 0 1-.119 2.009c-1.939 1.735-4.64 2.762-8.029 3.051-.282.024-.566.039-.849.039-.132 0-.263-.003-.394-.01-.172-.009-.339-.031-.509-.047v4.073h11.488c.78 0 1.412.637 1.412 1.423 0 .787-.632 1.423-1.412 1.423H19.939c-.78 0-1.411-.636-1.411-1.423 0-.786.631-1.423 1.411-1.423h11.206v-4.712c-3.534-1.311-5.98-4.339-6.065-7.937-.069-3.007 2.028-5.88 5.753-7.881l.312-.167v-9.6l-1.73-.462c-8.731-2.326-13.114-3.494-20.556-8.13a10.99 10.99 0 0 1-1.232-.89C1.18 29.963-.756 25.512.222 18.334c.221-3.216 1.298-6.445 3.106-9.244C6.615 3.996 12.12.642 18.052.121c8.506-.749 18.138 1.887 19.219 9.44.007.051.011.101.013.153.113 3.248-1.406 5.704-3.967 6.408-2.932.799-7.735-.881-11.705-8.253-1.751-3.258-11.626.766-16.132 3.225a.86.86 0 0 1-.096.048 16.958 16.958 0 0 0-2.356 7.485c-.851 6.266.707 9.771 6.399 14.52.29.242.6.464.919.663 7.083 4.412 11.064 5.473 19.79 7.797l1.009.27v-2.453c-10.635-.428-20.217-6.183-25.811-15.605a1.434 1.434 0 0 1-.019-1.427 1.41 1.41 0 0 1 1.219-.727l52.02-.482h.013c.502 0 .965.268 1.218.705.256.44.258.985.006 1.427zM18.65 3.819c2.365 0 4.379.717 5.443 2.692 2.963 5.503 6.471 7.418 8.481 6.865 1.232-.339 1.935-1.639 1.89-3.485-.939-6.047-10.165-7.465-16.167-6.935a16.579 16.579 0 0 0-7.474 2.578c2.538-.941 5.372-1.715 7.827-1.715zm9.254 58.583c.046 2.018 1.333 3.798 3.241 4.854v-9.548c-2.084 1.374-3.279 3.077-3.241 4.694zm6.56-9.767c.466-.251.821-.48 1.114-.718.941-.763 1.244-1.399 1.248-2.622 0-1.608-.739-2.621-2.469-3.38-.121-.053-.258-.107-.389-.16v7.147l.496-.267zM9.144 24.487c5.438 7.641 13.968 12.132 23.272 12.132 9.366 0 18.186-4.757 23.573-12.566l-46.845.434zm35.638 6.165c-1.974 1.3-3.999 1.959-6.021 1.959l-.137-.001a1.419 1.419 0 0 1-1.391-1.444c.009-.786.69-1.402 1.432-1.402 1.474.003 3.011-.467 4.573-1.495a1.404 1.404 0 0 1 1.953.414 1.428 1.428 0 0 1-.409 1.969zM31.258 7.701c1.105 0 2.004.907 2.004 2.021a2.015 2.015 0 0 1-2.004 2.021 2.015 2.015 0 0 1-2.005-2.021c0-1.114.899-2.021 2.005-2.021zm0 2.619a.597.597 0 1 0 0-1.196.597.597 0 0 0-.593.598c0 .33.266.598.593.598zm27.309 4.323h-3.385v3.411c0 .589-.474 1.067-1.059 1.067h-5.045a1.063 1.063 0 0 1-1.059-1.067v-3.411h-3.385a1.064 1.064 0 0 1-1.058-1.068V8.488c0-.589.474-1.067 1.058-1.067h3.385V4.009c0-.589.474-1.067 1.059-1.067h5.045c.585 0 1.059.478 1.059 1.067v3.412h3.385c.584 0 1.058.478 1.058 1.067v5.087c0 .589-.474 1.068-1.058 1.068zm-1.059-5.088h-3.385a1.063 1.063 0 0 1-1.058-1.067V5.076h-2.929v3.412c0 .589-.474 1.067-1.058 1.067h-3.385v2.953h3.385c.584 0 1.058.478 1.058 1.067v3.411h2.929v-3.411c0-.589.474-1.067 1.058-1.067h3.385V9.555z" class="cls-1"/></svg>