<svg xmlns="http://www.w3.org/2000/svg" preserveAspectRatio="xMidYMid" width="104" height="65.969" viewBox="0 0 104 65.969"><defs><style>.cls-1{fill:#20aa97;fill-rule:evenodd}</style></defs><path d="M102.777 34.13h-9.276a1.21 1.21 0 0 1-1.221-1.2 1.21 1.21 0 0 1 1.221-1.199h9.276a1.21 1.21 0 0 1 1.221 1.199c0 .663-.546 1.2-1.221 1.2zM88.418 19.179a1.227 1.227 0 0 1-.863.352c-.313 0-.625-.117-.864-.352a1.184 1.184 0 0 1 0-1.696l6.559-6.446a1.235 1.235 0 0 1 1.726 0 1.185 1.185 0 0 1 0 1.697l-6.558 6.445zM76.142 39.936a9.439 9.439 0 0 1-.078.755h.006v20.817c0 1.094-.796 2.013-1.895 2.186a2.253 2.253 0 0 1-2.488-1.465c-.011-.025-2.349-5.636-15.482-13.214-11.156-6.44-22.885-7.098-26.659-7.129-.864 1.599-2.555 2.623-4.452 2.623h-1.005l2.259 17.452c.168.958-.119 1.988-.793 2.774a3.542 3.542 0 0 1-2.699 1.232h-5.245c-1.731 0-3.197-1.216-3.487-2.893l-2.435-18.565H9.404c-2.698 0-4.909-2.094-5.035-4.715h-.271c-2.263 0-4.105-1.809-4.105-4.033v-7.826c0-2.223 1.842-4.033 4.105-4.033h.271c.126-2.621 2.335-4.715 5.035-4.715h15.69c1.895 0 3.587 1.024 4.451 2.622 3.775-.03 15.507-.688 26.66-7.129C69.341 7.101 71.675 1.495 71.696 1.439c.364-1.001 1.422-1.6 2.497-1.43 1.089.182 1.877 1.099 1.877 2.179v20.818l.009.458c2.202.285 3.906 1.997 3.906 4.082v8.313c0 2.065-1.671 3.767-3.843 4.077zM4.363 26.302h-.265c-.917 0-1.662.732-1.662 1.633v7.826c0 .9.745 1.633 1.662 1.633h.265V26.302zM16.54 62.72c.082.471.535.847 1.071.847h5.245c.323 0 .626-.138.831-.378.211-.245.3-.563.246-.874l-2.305-17.806h-7.476L16.54 62.72zm11.197-39.029a1.187 1.187 0 0 1-.164-.321 2.587 2.587 0 0 0-2.479-1.784H9.404c-1.433 0-2.599 1.146-2.599 2.553V37.68c0 .162-.035.316-.094.457.059.141.094.295.094.457v.962c0 1.409 1.166 2.554 2.599 2.554h15.69a2.586 2.586 0 0 0 2.479-1.783c.042-.127.104-.242.181-.346-.005-.042-.025-.078-.025-.122V23.733c0-.015.008-.027.008-.042zm45.891-.661V3.007c-1.05 1.887-4.783 7.163-16.185 13.743-11.13 6.426-22.791 7.349-27.272 7.448v15.299c4.48.1 16.138 1.022 27.272 7.448C68.852 53.53 72.579 58.8 73.628 60.686V40.691c0-.134.023-.266.067-.391.158-1.209.086-9.715-.067-17.27zm.355 16.815l-.002.002.002-.002zm3.56-12.299c0-.76-.595-1.402-1.417-1.639.105 5.741.132 9.32.102 11.565.77-.259 1.315-.883 1.315-1.613v-8.313zm10.875 19.403l6.558 6.445a1.185 1.185 0 0 1 0 1.697c-.238.234-.55.352-.863.352a1.23 1.23 0 0 1-.863-.352l-6.559-6.446a1.184 1.184 0 0 1 0-1.696 1.236 1.236 0 0 1 1.727 0z" class="cls-1"/></svg>