<svg xmlns="http://www.w3.org/2000/svg" preserveAspectRatio="xMidYMid" width="42" height="43" viewBox="0 0 42 43"><defs><style>.cls-1{fill:#20aa97;fill-rule:evenodd}</style></defs><path d="M40.93 40.064l-1.798 1.841a3.56 3.56 0 0 1-5.126 0l-.868-.889-.003-.002-.001-.002-5.323-5.451a2.247 2.247 0 0 1-.64-1.582c0-.597.227-1.159.64-1.582l1.426-1.461-2.705-2.77c-2.821 2.651-6.568 4.285-10.69 4.285-8.736 0-15.843-7.278-15.843-16.223S7.106.005 15.842.005s15.843 7.278 15.843 16.223c0 4.148-1.541 7.925-4.051 10.796l2.711 2.777 1.3-1.33a2.152 2.152 0 0 1 3.09 0l6.195 6.344c1.413 1.447 1.413 3.801 0 5.249zM30.117 16.228c0-8.06-6.403-14.617-14.275-14.617-7.871 0-14.275 6.557-14.275 14.617s6.404 14.617 14.275 14.617c7.872 0 14.275-6.557 14.275-14.617zm3.509 13.378a.607.607 0 0 0-.873 0l-3.834 3.927a.63.63 0 0 0-.181.446.63.63 0 0 0 .181.446l4.771 4.886 4.607-4.717c.035-.036.08-.054.12-.082l-4.791-4.906zm6.195 6.344l-.336-.344c-.027.041-.044.087-.08.123l-4.606 4.717.315.324c.778.796 2.131.796 2.909 0l1.798-1.841a2.145 2.145 0 0 0 0-2.979zM13.688 6.536c-2.448 1.016-4.473 2.711-6.017 5.036a.78.78 0 0 1-.65.351.769.769 0 0 1-.44-.139.814.814 0 0 1-.207-1.115c1.723-2.592 3.985-4.483 6.724-5.621.4-.166.858.03 1.021.442a.81.81 0 0 1-.431 1.046z" class="cls-1"/></svg>