<svg xmlns="http://www.w3.org/2000/svg" preserveAspectRatio="xMidYMid" width="66" height="69" viewBox="0 0 66 69"><defs><style>.cls-1{fill:#20aa97;fill-rule:evenodd}</style></defs><path d="M66.012 33.713a1.247 1.247 0 0 1-1.24 1.333 1.247 1.247 0 0 1-1.239-1.163c-.777-11.389-8.583-20.861-19.494-23.8l1.806 3.295a1.251 1.251 0 0 1-.488 1.695 1.238 1.238 0 0 1-1.687-.491l-3.166-5.778a1.251 1.251 0 0 1 .488-1.695l5.751-3.18a1.237 1.237 0 0 1 1.686.491 1.251 1.251 0 0 1-.488 1.695L44.97 7.758c11.808 3.33 20.197 13.612 21.042 25.955zm-29.643-.435H1.87A1.244 1.244 0 0 1 .629 32.03c0-.689.555-1.248 1.241-1.248h34.499c.686 0 1.242.559 1.242 1.248s-.556 1.248-1.242 1.248zm-.012-18.608h-3.398v12.421h.76c.687 0 1.242.558 1.242 1.248 0 .688-.555 1.247-1.242 1.247H4.003a1.244 1.244 0 0 1-1.241-1.247c0-.69.555-1.248 1.241-1.248h.66V14.67H1.667a1.244 1.244 0 0 1-1.185-.873A1.25 1.25 0 0 1 .955 12.4L18.3.214a1.234 1.234 0 0 1 1.423 0L37.068 12.4c.444.312.636.878.473 1.397-.163.52-.642.873-1.184.873zm-9.701 12.421h3.82V14.67h-3.82v12.421zm-6.303 0h3.819V14.67h-3.819v12.421zm-6.603 0h4.119V14.67H13.75v12.421zm-6.604 0h4.121V14.67H7.146v12.421zM19.012 2.758L5.61 12.175h26.803L19.012 2.758zM2.466 38.386c.777 11.388 8.583 20.861 19.493 23.801l-1.356-2.477a1.251 1.251 0 0 1 .488-1.695 1.241 1.241 0 0 1 1.687.491l2.716 4.959a1.25 1.25 0 0 1-.489 1.695l-4.935 2.73a1.242 1.242 0 0 1-1.687-.491 1.25 1.25 0 0 1 .489-1.694l2.154-1.192C9.243 61.21.833 50.916-.013 38.557a1.246 1.246 0 0 1 1.155-1.33 1.249 1.249 0 0 1 1.324 1.159zm50.883 14.031a6.187 6.187 0 0 1-4.127 1.588h-.194c-1.638 0-3.059-.534-4.224-1.588-1.072-1.076-1.793-2.046-2.317-3.097l-.01-.022c-.997-2.106-1.56-4.297-1.67-6.514l-.001-.939c.234-2.982 1.851-5.069 4.683-6.137 1.12-.45 2.253-.664 3.539-.664a9.63 9.63 0 0 1 3.563.674c2.759 1.039 4.42 3.182 4.655 6.024l.004.98c0 2.161-.53 4.374-1.575 6.577-.411 1.041-1.183 2.085-2.326 3.118zm1.417-10.572c-.147-1.75-1.212-3.1-3.072-3.801a7.195 7.195 0 0 0-2.666-.504c-.973 0-1.788.153-2.642.495-1.944.733-2.949 2.008-3.101 3.909l.004.778c.092 1.819.573 3.688 1.425 5.493.4.8.972 1.562 1.799 2.393.447.403.978.675 1.594.808a1.236 1.236 0 0 1 1.223-1.076h.012c.575 0 1.058.391 1.2.923a3.796 3.796 0 0 0 1.152-.705c.859-.779 1.404-1.498 1.707-2.259.917-1.939 1.365-3.79 1.365-5.577v-.877zM35.282 56.832a6.712 6.712 0 0 1 2.256-1.183l4.746-1.817c.09-.034.183-.059.278-.071l1.455-.195c.156-.022.314-.012.464.027l.388.097c.797.159 1.299.662 1.74 1.107.159.159.251.317.303.417.495.645.964 1.317 1.435 1.988.247.354.496.708.747 1.058l1.736-2.431c.057-.08.123-.151.195-.215.135-.232.362-.562.712-.915l.194-.194c.037-.037.075-.071.115-.103 1.105-.864 2.574-.995 4.132-.369l4.718 1.742a5.99 5.99 0 0 1 2.07 1.054c1.87 1.371 2.236 3.177 2.041 4.167v3.451c0 .743-.13 1.336-.422 1.923-.71 1.793-2.491 2.638-3.923 2.638H37.587c-1.39 0-3.162-.718-3.965-2.732a1.453 1.453 0 0 1-.051-.162 26.872 26.872 0 0 1-.304-1.324 1.274 1.274 0 0 1-.024-.246v-3.799c-.012-.531.098-2.422 2.039-3.913zm.444 7.587c.078.374.154.69.232 1 .429.985 1.278 1.094 1.629 1.094h23.075c.048 0 1.2-.014 1.659-1.165.144-.298.202-.495.202-.901v-3.604c0-.112.015-.224.045-.332 0-.17-.059-.936-1.081-1.677l-.049-.037c-.352-.284-.793-.502-1.311-.651l-4.837-1.783c-1.012-.405-1.476-.167-1.664-.032l-.133.133a2 2 0 0 0-.349.456 1.272 1.272 0 0 1-.159.243 1.548 1.548 0 0 1-.282.324l-2.569 3.596a1.244 1.244 0 0 1-.976.52 1.274 1.274 0 0 1-1.003-.468l-.388-.487a56.463 56.463 0 0 1-1.451-2.011 57.253 57.253 0 0 0-1.343-1.863 1.728 1.728 0 0 1-.211-.303c-.249-.249-.346-.329-.437-.347l-.214-.053-1.079.144-4.712 1.8a4.506 4.506 0 0 0-1.506.781c-1.035.794-1.094 1.658-1.089 1.906l.001 3.717z" class="cls-1"/></svg>