<svg xmlns="http://www.w3.org/2000/svg" preserveAspectRatio="xMidYMid" width="61.031" height="39" viewBox="0 0 61.031 39"><defs><style>.cls-1{fill:#20aa97;fill-rule:evenodd}</style></defs><path d="M61.003 24.905v2.626c0 .535-.09.941-.298 1.36-.511 1.281-1.776 1.879-2.793 1.879h-9.556v3.665c0 .756-.125 1.326-.416 1.91-.726 1.821-2.501 2.662-3.928 2.662H17.19c-1.387 0-3.153-.714-3.954-2.719a.75.75 0 0 1-.03-.095 28.935 28.935 0 0 1-.346-1.501.772.772 0 0 1-.014-.144V30.76c-.019.001-.035.01-.054.01H3.139a3.077 3.077 0 0 1-2.818-1.934c-.183-.364-.273-.77-.273-1.305v-2.626c-.142-.672.123-1.994 1.482-2.977.416-.333.948-.6 1.554-.773l3.552-1.307c1.407-.563 2.363-.172 2.914.257a.56.56 0 0 1 .068.061l.147.147c.267.267.433.515.526.679.053.042.1.092.141.148l1.482 2.065c.247-.335.49-.682.733-1.028.356-.505.712-1.011 1.087-1.498l.009-.011c.036-.073.096-.178.201-.282.33-.331.673-.673 1.259-.79l.26-.066a.732.732 0 0 1 .276-.016l1.103.147a.768.768 0 0 1 .165.042l3.678 1.398c.504.141 1.107.458 1.596.849.308.236.558.518.778.818l.007-.002 1.69-.225a.713.713 0 0 1 .276.015l.45.113c.75.148 1.209.609 1.696 1.096.141.141.21.279.251.362.61.794 1.16 1.574 1.69 2.329.471.669.957 1.359 1.454 2.017l2.584-3.602a.727.727 0 0 1 .186-.181.698.698 0 0 1 .025-.032c.181-.333.457-.695.768-1.006l.226-.225a.96.96 0 0 1 .068-.061c.957-.745 2.164-.925 3.517-.533.228-.327.496-.633.836-.893a4.914 4.914 0 0 1 1.643-.859l3.618-1.378a.784.784 0 0 1 .165-.042l1.103-.147a.733.733 0 0 1 .276.016l.294.073c.553.11.895.452 1.225.783a1.1 1.1 0 0 1 .21.293c.375.487.731.993 1.087 1.498.242.345.485.69.733 1.028l1.482-2.065a.763.763 0 0 1 .141-.148c.128-.226.315-.468.525-.679l.148-.147a.56.56 0 0 1 .068-.061c.551-.429 1.51-.822 2.934-.25l3.583 1.317a4.369 4.369 0 0 1 1.531.778c1.335.964 1.597 2.284 1.454 2.955zm-39.631-1.792a3.54 3.54 0 0 0-1.152-.612l-3.657-1.387-.879-.118-.157.04c-.161.033-.258.114-.492.347-.032.06-.079.14-.152.222-.354.463-.691.942-1.029 1.422-.355.505-.71 1.009-1.083 1.495l-.303.379a.773.773 0 0 1-.595.277.74.74 0 0 1-.581-.307l-1.964-2.738a.923.923 0 0 1-.201-.227.713.713 0 0 1-.1-.15 1.674 1.674 0 0 0-.306-.4l-.111-.112c-.164-.121-.577-.365-1.446-.018l-3.623 1.332c-.469.136-.827.314-1.118.545-.925.67-.937 1.368-.931 1.488.021.07.032.143.032.217v2.723c0 .345.055.524.143.7.343.851 1.085 1.063 1.472 1.063h9.653c.047 0 .088.018.133.027.156-.842.624-2.077 2.013-3.139a7.123 7.123 0 0 1 2.387-1.252l4.259-1.621c-.07-.066-.133-.135-.212-.196zm16.638 1.303c-1.095-.438-1.976-.405-2.64.09l-.191.19c-.338.339-.497.63-.538.711a.72.72 0 0 1-.137.19.952.952 0 0 1-.262.294L31.2 30.13a.738.738 0 0 1-1.175.031l-.451-.564a64.329 64.329 0 0 1-1.661-2.292c-.516-.732-1.048-1.488-1.594-2.201a1.338 1.338 0 0 1-.21-.317c-.412-.416-.62-.612-.95-.678l-.348-.087-1.466.196-5.555 2.112a5.816 5.816 0 0 0-1.943 1.014c-1.451 1.111-1.535 2.402-1.527 2.771l.001 4.359c.101.497.202.905.304 1.31.672 1.62 2.13 1.747 2.565 1.747h26.822c.693 0 2.018-.377 2.583-1.791.182-.369.286-.7.286-1.305v-4.172a.76.76 0 0 1 .043-.251c.015-.146.086-1.471-1.541-2.646l-.028-.021c-.485-.388-1.081-.684-1.771-.882l-5.574-2.047zm13.878-2.472l-.001.001h.001v-.001zm6.768 1.181a3.092 3.092 0 0 0-1.094-.551l-3.656-1.341c-.887-.354-1.302-.11-1.464.011l-.113.113a1.704 1.704 0 0 0-.303.396.696.696 0 0 1-.103.153.98.98 0 0 1-.197.224l-1.967 2.741a.74.74 0 0 1-.581.307.773.773 0 0 1-.595-.277l-.294-.368a43.443 43.443 0 0 1-1.092-1.506c-.337-.48-.675-.959-1.029-1.422a1.036 1.036 0 0 1-.151-.222c-.235-.233-.33-.314-.459-.34l-.19-.047-.88.118-3.597 1.367c-.43.126-.867.357-1.198.622-.107.082-.192.169-.279.256l4.627 1.701a6.366 6.366 0 0 1 2.221 1.12c1.361.989 1.921 2.186 2.084 3.114h9.566a1.59 1.59 0 0 0 1.447-1.008c.113-.231.168-.41.168-.755v-2.723c0-.074.011-.147.033-.217.005-.12-.005-.816-.904-1.466zm-1.063 3.925h-2.398a.737.737 0 0 1 0-1.477h2.398a.738.738 0 0 1 0 1.477zm-36.891 6.644H17.26a.737.737 0 0 1-.737-.739c0-.408.329-.738.737-.738h3.442a.737.737 0 1 1 0 1.477zM5.946 27.05H3.548a.737.737 0 1 1 0-1.477h2.398a.738.738 0 0 1 0 1.477zm46.282-9.86a4.505 4.505 0 0 1-2.995 1.146h-.147c-1.191 0-2.223-.385-3.067-1.146-.788-.786-1.322-1.502-1.711-2.278a.091.091 0 0 1-.007-.014c-.745-1.567-1.165-3.196-1.247-4.842l-.001-.699c.169-2.151 1.352-3.668 3.42-4.444a6.84 6.84 0 0 1 2.613-.488c.912 0 1.82.171 2.627.493 2.017.758 3.232 2.314 3.403 4.378l.003.723c0 1.6-.396 3.242-1.175 4.88-.309.778-.86 1.52-1.716 2.291zm1.415-7.833c-.121-1.423-.973-2.503-2.463-3.061a5.66 5.66 0 0 0-2.094-.395c-.766 0-1.407.12-2.079.389-1.552.582-2.359 1.603-2.481 3.125l.003.604c.071 1.411.442 2.85 1.101 4.238.316.629.762 1.22 1.404 1.862.538.483 1.237.741 2.052.741h.147a3.03 3.03 0 0 0 2.011-.77c.678-.611 1.107-1.179 1.349-1.783.703-1.481 1.05-2.909 1.05-4.288v-.662zm-18.604 9.528a6.507 6.507 0 0 1-4.326 1.655h-.225c-1.725 0-3.218-.557-4.438-1.655-1.163-1.162-1.959-2.227-2.533-3.376l-.007-.013c-1.12-2.354-1.75-4.8-1.873-7.272l-.001-1.051c.246-3.103 1.969-5.31 4.987-6.442 1.228-.492 2.461-.724 3.865-.724 1.346 0 2.688.253 3.881.729 2.949 1.107 4.718 3.373 4.968 6.375l.003 1.076c0 2.393-.593 4.852-1.762 7.309-.462 1.159-1.275 2.25-2.539 3.389zm2.826-11.712c-.201-2.376-1.595-4.147-4.029-5.059a9.053 9.053 0 0 0-3.348-.63c-1.227 0-2.254.192-3.333.624-2.492.935-3.848 2.657-4.045 5.124l.002.955c.112 2.238.694 4.493 1.728 6.667.501 1.002 1.209 1.943 2.225 2.96.912.82 2.073 1.249 3.423 1.249h.225a5.025 5.025 0 0 0 3.342-1.279c1.087-.979 1.778-1.895 2.172-2.88 1.093-2.3 1.638-4.545 1.638-6.717V7.173zM16.75 14.898c-.395.79-.93 1.506-1.69 2.266-.872.787-1.904 1.172-3.095 1.172h-.147a4.504 4.504 0 0 1-2.991-1.143c-.859-.774-1.411-1.516-1.739-2.338-.76-1.594-1.156-3.236-1.156-4.836v-.662c.174-2.125 1.388-3.681 3.42-4.444a7.132 7.132 0 0 1 2.613-.488c.95 0 1.784.157 2.627.493 2.054.771 3.237 2.288 3.404 4.38l.002.721-.001.037c-.082 1.646-.502 3.275-1.247 4.842zm-.227-5.541c-.12-1.464-.926-2.485-2.464-3.061a5.366 5.366 0 0 0-2.094-.395c-.725 0-1.445.135-2.08.389-1.504.565-2.356 1.644-2.48 3.128l.003.601c0 1.379.347 2.807 1.031 4.245.261.647.69 1.215 1.372 1.829a3.025 3.025 0 0 0 2.007.767h.147c.815 0 1.515-.258 2.08-.767.616-.618 1.063-1.212 1.379-1.842a11.246 11.246 0 0 0 1.099-4.25v-.644z" class="cls-1"/></svg>