<svg xmlns="http://www.w3.org/2000/svg" preserveAspectRatio="xMidYMid" width="52" height="49" viewBox="0 0 52 49"><defs><style>.cls-1{fill:#20aa97;fill-rule:evenodd}</style></defs><path d="M51.427 7.607L47.385 11.3a1.81 1.81 0 0 1-1.409.475l-4.11-.417-1.001.005h-.008c-.021 0-.038-.012-.058-.013L23.355 25.507a.906.906 0 0 1-1.274-.129.9.9 0 0 1 .13-1.269L39.657 9.95c.004-.022-.005-.044 0-.067l.219-1.011.409-4.042c.046-.502.312-.972.728-1.279l4.45-3.197A1.839 1.839 0 0 1 46.49.009c.507-.032 1.005.207 1.367.599.361.391.536.904.481 1.405l-.23 2.249 2.265.229a1.85 1.85 0 0 1 1.532 1.227 1.829 1.829 0 0 1-.478 1.889zm-4.084-1.61a1.226 1.226 0 0 1-1.097-1.339l.29-2.835-4.454 3.185-.414 4.111-.013.091-.075.346.304-.002h.005c.023 0 .081.002.105.004l4.16.422 4.041-3.695-2.852-.288zM21.68 28.854a3.803 3.803 0 0 0 2.864-.604 3.786 3.786 0 0 0 1.596-2.444.901.901 0 0 1 1.056-.722.902.902 0 0 1 .725 1.051 5.573 5.573 0 0 1-2.352 3.601 5.608 5.608 0 0 1-4.22.891c-3.055-.564-5.08-3.499-4.513-6.542a5.573 5.573 0 0 1 2.352-3.601 5.612 5.612 0 0 1 4.22-.891.903.903 0 0 1 .726 1.051.907.907 0 0 1-1.056.722 3.822 3.822 0 0 0-2.865.604 3.781 3.781 0 0 0-1.595 2.444 3.814 3.814 0 0 0 3.062 4.44zm9.77-7.253a.91.91 0 0 1 1.119.62c.775 2.71.444 5.558-.933 8.02a10.514 10.514 0 0 1-6.356 5.014 10.583 10.583 0 0 1-8.055-.928 10.491 10.491 0 0 1-5.036-6.328 10.442 10.442 0 0 1 .932-8.02 10.517 10.517 0 0 1 6.356-5.014 10.591 10.591 0 0 1 7.836.811.898.898 0 0 1 .379 1.217.907.907 0 0 1-1.223.378 8.785 8.785 0 0 0-6.496-.671 8.72 8.72 0 0 0-5.269 4.156 8.654 8.654 0 0 0-.773 6.649 8.692 8.692 0 0 0 4.175 5.245 8.76 8.76 0 0 0 6.679.77 8.718 8.718 0 0 0 5.268-4.156 8.653 8.653 0 0 0 .773-6.649.901.901 0 0 1 .624-1.114zm4.588-3.758a.907.907 0 0 1 1.202.441c3.781 8.157.189 17.857-8.004 21.621a16.33 16.33 0 0 1-6.833 1.498c-6.191 0-12.126-3.513-14.885-9.467a16.125 16.125 0 0 1-.496-12.46 16.22 16.22 0 0 1 8.5-9.161c5.209-2.392 11.386-1.87 16.122 1.362a.9.9 0 0 1 .236 1.253.909.909 0 0 1-1.26.234c-4.213-2.874-9.708-3.338-14.339-1.211a14.424 14.424 0 0 0-7.56 8.146 14.343 14.343 0 0 0 .442 11.082c3.361 7.254 12.024 10.435 19.314 7.087 7.287-3.349 10.48-11.974 7.118-19.228a.9.9 0 0 1 .443-1.197zm-.947-8.824C28.786 4.09 20.109 3.26 12.983 6.907 8.099 9.405 4.484 13.648 2.806 18.853a20.247 20.247 0 0 0 1.288 15.611c2.51 4.863 6.772 8.461 11.999 10.133a20.5 20.5 0 0 0 15.681-1.284c4.885-2.498 8.499-6.741 10.178-11.946a20.243 20.243 0 0 0-1.289-15.611.901.901 0 0 1 .392-1.215.907.907 0 0 1 1.22.391 22.042 22.042 0 0 1 1.402 16.987 22.122 22.122 0 0 1-6.023 9.452l3.929 6.244a.9.9 0 0 1-.767 1.38.907.907 0 0 1-.769-.423L36.27 42.57a22.623 22.623 0 0 1-3.668 2.348 22.357 22.357 0 0 1-10.199 2.473c-2.3 0-4.611-.357-6.864-1.077a22.335 22.335 0 0 1-7.83-4.391l-.001.002-4.185 6.647a.906.906 0 0 1-1.249.286.9.9 0 0 1-.287-1.243l4.185-6.649a.903.903 0 0 1 .241-.251 22.32 22.32 0 0 1-3.93-5.427 22.033 22.033 0 0 1-1.402-16.987c1.826-5.663 5.76-10.28 11.074-12.999C19.908 1.336 29.351 2.237 36.209 7.6a.9.9 0 0 1 .153 1.266.909.909 0 0 1-1.271.153z" class="cls-1"/></svg>