<svg xmlns="http://www.w3.org/2000/svg" preserveAspectRatio="xMidYMid" width="69" height="69" viewBox="0 0 69 69"><defs><style>.cls-1{fill:#20aa97;fill-rule:evenodd}</style></defs><path d="M68.993 33.196c.048.689-.488 1.287-1.196 1.334a1.353 1.353 0 0 1-.09.003c-.671 0-1.235-.505-1.283-1.166-.906-12.835-10.062-23.498-22.831-26.684l2.236 3.952a1.233 1.233 0 0 1-.506 1.699c-.198.106-.41.155-.62.155-.454 0-.895-.234-1.129-.648l-3.637-6.427a1.233 1.233 0 0 1 .507-1.699L47.052.178a1.306 1.306 0 0 1 1.749.492 1.234 1.234 0 0 1-.507 1.7l-3.711 1.987c13.664 3.564 23.435 15.04 24.41 28.839zM39.161 23.157c0-1.204.943-2.289 2.684-2.492v-1.121h1.361v1.133a5.301 5.301 0 0 1 1.636.483c.515.251.632.923.282 1.369-.287.364-.794.451-1.216.247a3.988 3.988 0 0 0-1.707-.394c-.613 0-.883.239-.883.572 0 1.014 4.623.275 4.623 3.232 0 1.43-.969 2.432-2.735 2.623v1.084h-1.361v-1.084c-.842-.077-1.535-.295-2.108-.617a.917.917 0 0 1-.302-1.344l.012-.018a.959.959 0 0 1 1.258-.264c.527.312 1.18.526 1.925.526.724 0 1.165-.274 1.165-.656 0-1.085-4.634-.215-4.634-3.279zm5.598 11.723c1.826 0 3.649.755 5.003 2.072l6.578 6.398c1.555 1.511 2.202 3.564 1.822 5.782-.347 2.195-1.582 3.905-3.572 4.939l-.008.007c-.089.087-.192.16-.304.218-2.533 1.304-5.52 1.993-8.642 1.993-5.245 0-10.189-1.998-13.921-5.626L16.219 35.595c-5.989-5.823-7.496-14.629-3.75-21.915.063-.121.146-.232.245-.328l.004-.004c1.254-2.276 3.543-3.629 6.166-3.629 1.826 0 3.596.704 4.856 1.931l6.568 6.244c1.451 1.409 2.172 3.327 1.991 5.273.005 1.555-.925 3.343-2.482 4.667-.466.364-.729.862-.729 1.332 0 .059-.004.119-.013.178-.096.651.279 1.127.513 1.353l7.017 6.824c.365.355.862.527 1.385.508a1.92 1.92 0 0 0 1.379-.689c1.246-1.558 3.214-2.46 5.39-2.46zm-9.974 4.411l-7.017-6.823c-.952-.926-1.406-2.157-1.253-3.392.029-1.199.641-2.375 1.651-3.161.948-.808 1.564-1.918 1.564-2.861.117-1.317-.333-2.507-1.231-3.38l-6.569-6.245c-.78-.759-1.915-1.206-3.046-1.206-1.725 0-3.17.887-3.966 2.435a1.237 1.237 0 0 1-.239.323c-3.132 6.284-1.794 13.832 3.36 18.844l15.496 15.069c3.245 3.154 7.543 4.892 12.101 4.892 2.634 0 5.144-.56 7.272-1.618l.009-.009c.096-.094.208-.171.33-.231 1.363-.662 2.138-1.707 2.373-3.192.243-1.414-.149-2.693-1.1-3.616v-.001l-6.578-6.397c-.875-.851-2.036-1.339-3.183-1.339-1.376 0-2.604.549-3.37 1.507a4.527 4.527 0 0 1-3.257 1.638 4.398 4.398 0 0 1-3.347-1.237zm-9.373 23.061l-2.236-3.951a1.234 1.234 0 0 1 .506-1.7c.624-.333 1.407-.114 1.749.492l3.637 6.427a1.234 1.234 0 0 1-.507 1.701l-6.608 3.536c-.197.106-.41.156-.62.156-.453 0-.895-.234-1.128-.648a1.233 1.233 0 0 1 .506-1.7l3.711-1.986C10.761 61.118.987 49.639.012 35.839c-.048-.689.488-1.287 1.197-1.334.719-.045 1.323.473 1.372 1.163.906 12.834 10.062 23.497 22.831 26.684z" class="cls-1"/></svg>