<svg xmlns="http://www.w3.org/2000/svg" preserveAspectRatio="xMidYMid" width="41.97" height="56" viewBox="0 0 41.97 56"><defs><style>.cls-1{fill:#20aa97;fill-rule:evenodd}</style></defs><path d="M40.405 20.71a.338.338 0 0 0-.003.402l.726.985c.748 1.003 1.021 2.276.748 3.496a4.361 4.361 0 0 1-2.165 2.865l-1.075.592a.34.34 0 0 0-.177.36l.226 1.195a4.3 4.3 0 0 1-.867 3.465 4.438 4.438 0 0 1-3.214 1.653l-1.236.073a.347.347 0 0 0-.319.244l-.326 1.178a4.331 4.331 0 0 1-1.913 2.518c.017.073.045.142.045.22v15.057a.989.989 0 0 1-.427.812 1.022 1.022 0 0 1-.92.127l-8.074-2.798-8.073 2.798a1.029 1.029 0 0 1-.92-.127.989.989 0 0 1-.427-.812V40.167c-1.201-.5-2.16-1.499-2.535-2.778l-.342-1.168a.34.34 0 0 0-.316-.243l-1.232-.049a4.448 4.448 0 0 1-3.24-1.606 4.332 4.332 0 0 1-.922-3.452l.209-1.205a.336.336 0 0 0-.179-.351l-1.09-.578a4.351 4.351 0 0 1-2.208-2.832 4.307 4.307 0 0 1 .692-3.506l.709-.994a.336.336 0 0 0 .003-.401l-.726-.978a4.285 4.285 0 0 1-.748-3.495 4.368 4.368 0 0 1 2.165-2.866l1.077-.591a.34.34 0 0 0 .175-.36l-.227-1.193a4.305 4.305 0 0 1 .867-3.467A4.403 4.403 0 0 1 7.369 6.4l1.218-.073a.348.348 0 0 0 .321-.245l.326-1.176c.52-1.883 2.271-3.199 4.257-3.199.561 0 1.123.11 1.671.327l1.149.462a.374.374 0 0 0 .396-.092l.8-.917a4.47 4.47 0 0 1 3.339-1.498 4.44 4.44 0 0 1 3.282 1.45l.823.901a.371.371 0 0 0 .395.088l1.138-.477a4.441 4.441 0 0 1 1.74-.351c1.958 0 3.703 1.289 4.244 3.134l.354 1.145a.345.345 0 0 0 .32.258l1.234.049a4.447 4.447 0 0 1 3.24 1.608 4.32 4.32 0 0 1 .921 3.452l-.209 1.204a.332.332 0 0 0 .18.351l1.089.578a4.35 4.35 0 0 1 2.208 2.831 4.296 4.296 0 0 1-.692 3.506l-.708.994zM21.099 51.16c.217-.076.454-.076.671 0l7.063 2.448V40.386c-.122.011-.242.031-.366.031-.56 0-1.121-.11-1.67-.326l-1.151-.464a.371.371 0 0 0-.399.093l-.806.919a4.472 4.472 0 0 1-3.337 1.495 4.455 4.455 0 0 1-3.283-1.448l-.826-.902a.373.373 0 0 0-.397-.088l-1.134.477a4.42 4.42 0 0 1-1.428.319v13.116l7.063-2.448zm17.658-31.604l.702-.984a2.336 2.336 0 0 0-.816-3.439l-1.089-.577a2.327 2.327 0 0 1-1.222-2.429l.212-1.212a2.353 2.353 0 0 0-.502-1.872 2.408 2.408 0 0 0-1.75-.869l-1.234-.049a2.348 2.348 0 0 1-2.176-1.687l-.352-1.137a2.401 2.401 0 0 0-2.306-1.711c-.324 0-.651.066-.944.19l-1.14.478c-.923.39-2.036.146-2.698-.594l-.82-.896c-.924-1.016-2.68-.995-3.588.023l-.795.912c-.657.748-1.764 1.006-2.691.636l-1.145-.461c-1.382-.543-2.858.246-3.218 1.551l-.325 1.174a2.353 2.353 0 0 1-2.153 1.71l-1.224.074a2.378 2.378 0 0 0-1.745.894 2.332 2.332 0 0 0-.47 1.878l.226 1.188a2.316 2.316 0 0 1-1.179 2.465l-1.075.591a2.368 2.368 0 0 0-1.176 1.555c-.147.661 0 1.351.404 1.892l.728.98c.605.816.609 1.913.012 2.73l-.703.984a2.328 2.328 0 0 0-.377 1.903 2.35 2.35 0 0 0 1.195 1.536l1.089.577a2.32 2.32 0 0 1 1.218 2.431L5.421 31.2a2.354 2.354 0 0 0 .501 1.872 2.41 2.41 0 0 0 1.751.869l1.233.049a2.349 2.349 0 0 1 2.175 1.685l.341 1.162c.293.998 1.24 1.696 2.301 1.696.325 0 .651-.065.943-.19l1.139-.477c.296-.125.61-.184.922-.184a2.39 2.39 0 0 1 1.779.779l.818.894c.928 1.018 2.686.994 3.591-.023l.804-.916c.657-.743 1.761-1.002 2.691-.632l1.146.462c1.374.545 2.855-.245 3.216-1.551l.325-1.176c.264-.962 1.129-1.65 2.151-1.709l1.235-.073a2.406 2.406 0 0 0 1.743-.894c.422-.53.593-1.214.471-1.878l-.225-1.189a2.316 2.316 0 0 1 1.178-2.465l1.075-.591a2.367 2.367 0 0 0 1.177-1.555c.147-.661 0-1.349-.405-1.891l-.004-.006-.726-.986a2.29 2.29 0 0 1-.01-2.726zM20.983 34.323c-7.476 0-13.559-5.987-13.559-13.346 0-7.358 6.083-13.344 13.559-13.344 7.476 0 13.558 5.986 13.558 13.344 0 7.359-6.082 13.346-13.558 13.346zm0-24.7c-6.361 0-11.537 5.093-11.537 11.354 0 6.262 5.176 11.355 11.537 11.355 6.362 0 11.536-5.093 11.536-11.355 0-6.261-5.174-11.354-11.536-11.354zm.086 14.629a1.014 1.014 0 0 1-.717.294c-.242 0-.485-.085-.677-.257l-2.866-2.546a.984.984 0 0 1-.073-1.406 1.022 1.022 0 0 1 1.427-.072l2.152 1.912 4.351-4.306a1.021 1.021 0 0 1 1.43-.004.983.983 0 0 1 .004 1.407l-5.031 4.978z" class="cls-1"/></svg>