<svg xmlns="http://www.w3.org/2000/svg" preserveAspectRatio="xMidYMid" width="60" height="69" viewBox="0 0 60 69"><defs><style>.cls-1{fill:#20aa97;fill-rule:evenodd}</style></defs><path d="M57.082 58.392c.957 1.29.785 3.28-.497 4.548l-2.721 2.691c-1.182 1.169-3.208 1.388-4.627.476-.291 1.635-1.808 2.891-3.609 2.891h-3.817c-1.788 0-3.293-1.216-3.639-2.88-1.302.878-3.407.691-4.598-.487l-.066-.066c-.066.01-.125.039-.194.039H2.773C1.297 65.601.002 64.32.002 62.861V2.735C.001 2.056.312 1.356.856.817c.536-.531 1.217-.824 1.917-.824h31.131c.675.043 1.421.277 1.939.772L49.2 13.978a2.75 2.75 0 0 1 .817 1.956v23.368c1.244-.457 2.791-.17 3.847.875l2.711 2.68c1.266 1.203 1.454 3.119.489 4.589 1.653.285 2.925 1.787 2.925 3.57v3.776a3.656 3.656 0 0 1-2.907 3.6zM34.496 3.038v11.667H46.29L34.496 3.038zm12.943 14.218H33.207a1.282 1.282 0 0 1-1.289-1.276V2.544H2.773a.472.472 0 0 0-.196.23l.003 60.087c.003.066.128.191.195.192H30.97l-.115-.113c-1.231-1.28-1.403-3.148-.479-4.577-1.654-.286-2.926-1.789-2.926-3.571v-3.776a3.657 3.657 0 0 1 2.908-3.6c-.958-1.291-.785-3.28.497-4.548l2.719-2.691c1.297-1.218 3.188-1.387 4.628-.472.287-1.637 1.805-2.896 3.609-2.896h3.817c.656 0 1.274.167 1.811.457v-20.01zm9.971 33.76c0-.566-.385-1.018-.913-1.075l-1.873-.315a1.289 1.289 0 0 1-.974-.763c-.17-.404-.12-.864.133-1.222l1.008-1.432c.413-.527.394-1.14-.005-1.515-.009-.007-.016-.015-.024-.023l-2.72-2.69c-.398-.393-.999-.457-1.369-.147l-1.582 1.111a1.296 1.296 0 0 1-1.236.137 1.277 1.277 0 0 1-.778-.96l-.306-1.735c-.071-.63-.547-1.027-1.143-1.027h-3.817c-.571 0-1.028.38-1.086.905l-.319 1.853a1.276 1.276 0 0 1-.773.962 1.3 1.3 0 0 1-1.235-.13l-1.447-.999c-.509-.387-1.152-.35-1.578.053l-2.695 2.667c-.398.394-.463.988-.15 1.354l1.124 1.565c.256.358.308.818.14 1.223a1.294 1.294 0 0 1-.969.77l-1.755.304c-.638.069-1.04.54-1.04 1.129v3.776c0 .565.386 1.017.917 1.075l1.872.313c.434.074.801.363.971.765a1.26 1.26 0 0 1-.131 1.223L32.648 59.6c-.39.503-.353 1.138.053 1.559l2.696 2.669c.37.366 1.146.341 1.355.158.034-.029.069-.056.105-.082l1.492-1.041a1.297 1.297 0 0 1 1.235-.137c.408.167.701.529.778.959l.307 1.734c.071.632.546 1.029 1.142 1.029h3.817c.571 0 1.028-.381 1.087-.907l.319-1.85c.074-.431.365-.794.771-.963a1.3 1.3 0 0 1 1.236.131l1.447.997c.593.46 1.18.343 1.554-.028l2.72-2.691c.398-.394.462-.988.149-1.354l-1.125-1.567a1.262 1.262 0 0 1-.137-1.221c.167-.404.534-.694.968-.77l1.755-.304c.638-.07 1.038-.54 1.038-1.129v-3.776zm-13.139 9.225c-4.09 0-7.417-3.291-7.417-7.337 0-4.046 3.327-7.337 7.417-7.337s7.417 3.291 7.417 7.337c0 4.046-3.327 7.337-7.417 7.337zm0-12.124c-2.669 0-4.839 2.147-4.839 4.787s2.17 4.787 4.839 4.787c2.668 0 4.839-2.147 4.839-4.787s-2.171-4.787-4.839-4.787zM32.658 34.219H13.724a1.281 1.281 0 0 1-1.289-1.275c0-.704.576-1.275 1.289-1.275h18.934c.712 0 1.289.571 1.289 1.275s-.577 1.275-1.289 1.275zm-1.084-7.912H10.477a1.282 1.282 0 0 1-1.289-1.276c0-.704.577-1.275 1.289-1.275h21.097c.713 0 1.289.571 1.289 1.275 0 .705-.576 1.276-1.289 1.276zm-6.565-6.557h-8.286a1.283 1.283 0 0 1-1.289-1.276c0-.704.577-1.275 1.289-1.275h8.286c.713 0 1.289.571 1.289 1.275s-.576 1.276-1.289 1.276zm-1.892 20.493c.713 0 1.289.571 1.289 1.275s-.576 1.275-1.289 1.275H9.487c-.713 0-1.29-.571-1.29-1.275s.577-1.275 1.29-1.275h13.63z" class="cls-1"/></svg>