<svg xmlns="http://www.w3.org/2000/svg" preserveAspectRatio="xMidYMid" width="71" height="69" viewBox="0 0 71 69"><defs><style>.cls-1{fill:#20aa97;fill-rule:evenodd}</style></defs><path d="M49.563 50.124a1.27 1.27 0 0 1 0 1.799l-3.624 3.616a1.274 1.274 0 0 1-1.803-1.799l3.624-3.616a1.278 1.278 0 0 1 1.803 0zM36.68 44.977c.705 0 1.275.569 1.275 1.271v5.114c0 .703-.57 1.272-1.275 1.272a1.273 1.273 0 0 1-1.275-1.272v-5.114c0-.702.57-1.271 1.275-1.271zm29.722 5.342c-.067.16-.163.309-.297.435L52.723 63.409c-1.21 1.145-2.726 1.776-4.268 1.776h-3.638c-.57 2.194-2.553 3.826-4.928 3.826h-6.118c-2.817 0-5.109-2.287-5.109-5.097 0-2.811 2.292-5.098 5.109-5.098h6.118c2.375 0 4.358 1.632 4.928 3.826h3.638c.9 0 1.769-.373 2.516-1.079l10.39-9.825h-4.006a4.106 4.106 0 0 1-4.106-4.097v-18.33a4.107 4.107 0 0 1 4.106-4.099h4.042c.663 0 1.343.111 2.038.273-.252-12.677-12.588-22.93-27.738-22.93-15.11 0-27.414 10.197-27.732 22.827.135-.026.269-.042.402-.061a8.146 8.146 0 0 1 1.233-.109h4.042a4.108 4.108 0 0 1 4.108 4.099v18.33a4.107 4.107 0 0 1-4.108 4.097H9.6c-5.298 0-9.609-4.301-9.609-9.587v-7.35c0-3.248 1.641-6.252 4.391-8.036.048-.032.1-.061.154-.086l.925-.432c-.037-.12-.075-.24-.075-.372C5.386 11.614 18.984.012 35.697.012c16.714 0 30.311 11.602 30.311 25.863 0 .193-.049.37-.126.534l.581.271c.052.025.103.053.153.085 2.748 1.783 4.39 4.787 4.39 8.036v7.35c0 3.455-1.848 6.481-4.604 8.168zM39.889 61.36h-6.118a2.558 2.558 0 0 0-2.559 2.554 2.558 2.558 0 0 0 2.559 2.553h6.118a2.558 2.558 0 0 0 2.559-2.553 2.558 2.558 0 0 0-2.559-2.554zM13.142 49.194h.5c.859 0 1.558-.697 1.558-1.553v-18.33c0-.858-.699-1.555-1.558-1.555h-.5v21.438zM5.7 28.944c-1.98 1.318-3.159 3.501-3.159 5.857v7.35c0 3.883 3.166 7.043 7.059 7.043h.992V27.756H9.6c-.678 0-1.386.122-2.161.376l-1.739.812zm52.157-1.188h-.502c-.859 0-1.557.697-1.557 1.555v18.33c0 .856.698 1.553 1.557 1.553h.502V27.756zm10.6 7.045a7.02 7.02 0 0 0-3.16-5.857l-1.737-.812c-.776-.254-1.484-.376-2.163-.376h-.991v21.438h.991c3.893 0 7.06-3.16 7.06-7.043v-7.35zM25.749 50.124l3.624 3.616a1.27 1.27 0 0 1 0 1.799 1.274 1.274 0 0 1-1.803 0l-3.623-3.616a1.27 1.27 0 0 1 0-1.799 1.277 1.277 0 0 1 1.802 0z" class="cls-1"/></svg>